<svg width="25" height="26" viewBox="0 0 25 26" fill="none" xmlns="http://www.w3.org/2000/svg">
<rect x="1" y="1.5" width="23" height="23" rx="11.5" stroke="#10B704" stroke-width="2"/>
<path fill-rule="evenodd" clip-rule="evenodd" d="M12.5001 20.5C12.2791 20.5 12.0671 20.4122 11.9108 20.2559L6.0775 14.4226C5.75208 14.0972 5.75208 13.5695 6.0775 13.2441C6.40292 12.9187 6.93058 12.9187 7.256 13.2441L11.6667 17.6548L11.6667 6.33333C11.6667 5.87308 12.0398 5.5 12.5001 5.5C12.9603 5.5 13.3334 5.87308 13.3334 6.33333L13.3334 17.6548L17.7442 13.2441C18.0696 12.9187 18.5972 12.9187 18.9227 13.2441C19.2481 13.5695 19.2481 14.0972 18.9227 14.4226L13.0893 20.2559C12.9331 20.4122 12.7211 20.5 12.5001 20.5Z" fill="#10B704"/>
</svg>
