<svg width="150" height="140" viewBox="0 0 150 140" fill="none" xmlns="http://www.w3.org/2000/svg">
<path d="M21.9662 129.184C51.2566 143.142 98.7434 143.147 128.034 129.184C157.324 115.221 157.32 92.5907 128.034 78.632C98.7477 64.6733 51.2566 64.6733 21.9662 78.632C-7.32419 92.5907 -7.31994 115.225 21.9662 129.184Z" fill="#F5F5F5"/>
<path d="M127.932 118.867C133.326 118.867 137.699 116.784 137.699 114.213C137.699 111.643 133.326 109.559 127.932 109.559C122.537 109.559 118.164 111.643 118.164 114.213C118.164 116.784 122.537 118.867 127.932 118.867Z" fill="#EBEBEB"/>
<path d="M19.743 114.881L23.1987 112.887C25.1281 111.313 26.5966 109.247 27.4493 106.907C28.5161 103.966 28.3674 101.73 27.6023 100.608C26.6629 99.2262 24.2274 99.4685 24.1296 102.376C23.9256 108.106 22.2551 112.08 19.743 114.881Z" fill="#1F8FFF"/>
<path opacity="0.2" d="M19.743 114.881L23.1987 112.887C25.1281 111.313 26.5966 109.247 27.4493 106.907C28.5161 103.966 28.3674 101.73 27.6023 100.608C26.6629 99.2262 24.2274 99.4685 24.1296 102.376C23.9256 108.106 22.2551 112.08 19.743 114.881Z" fill="black"/>
<path d="M19.7429 115.093C19.6979 115.093 19.6542 115.078 19.6182 115.051C19.5821 115.024 19.5556 114.986 19.5424 114.943C19.5291 114.9 19.5299 114.854 19.5445 114.812C19.5592 114.769 19.587 114.732 19.6239 114.707C27.6149 109.181 26.0677 101.475 26.0507 101.398C26.0448 101.37 26.0445 101.341 26.0498 101.313C26.055 101.285 26.0658 101.259 26.0814 101.235C26.0969 101.211 26.1171 101.19 26.1406 101.174C26.1642 101.158 26.1906 101.147 26.2186 101.141C26.2465 101.135 26.2753 101.135 26.3033 101.14C26.3313 101.145 26.358 101.156 26.3819 101.172C26.4058 101.187 26.4264 101.207 26.4425 101.231C26.4586 101.254 26.4699 101.281 26.4757 101.309C26.4757 101.39 28.1079 109.359 19.8789 115.055C19.839 115.082 19.7912 115.096 19.7429 115.093Z" fill="white"/>
<path d="M12.8184 118.881C12.8184 118.881 11.6155 117.903 11.9046 116.577C12.1936 115.251 12.9715 114.299 11.641 112.59C10.3106 110.881 9.94082 108.603 11.5305 107.37C12.7419 106.414 14.6334 107.766 15.3135 105.245C15.8151 103.4 15.645 99.3157 17.9956 97.9555C20.3461 96.5954 21.821 98.6441 21.4512 101.415C21.1282 103.894 20.6692 106.278 21.0262 106.941C21.7148 108.216 22.8922 108.042 22.8369 110.371C22.7902 112.539 20.7372 114.333 20.7372 114.333L12.8184 118.881Z" fill="#1F8FFF"/>
<path d="M16.7674 116.802C16.7155 116.802 16.6654 116.783 16.6264 116.748C16.5874 116.714 16.562 116.667 16.5549 116.615C15.9471 111.578 17.405 102.882 18.5952 100.297C18.6052 100.269 18.6212 100.243 18.6422 100.221C18.6632 100.199 18.6887 100.182 18.7169 100.17C18.7451 100.159 18.7753 100.154 18.8057 100.155C18.836 100.157 18.8657 100.165 18.8927 100.178C18.9181 100.19 18.9409 100.206 18.9598 100.227C18.9788 100.247 18.9934 100.271 19.0029 100.297C19.0124 100.323 19.0166 100.351 19.0152 100.379C19.0138 100.407 19.0068 100.434 18.9947 100.459C17.8173 103.009 16.4104 111.731 16.9927 116.547C16.9987 116.603 16.9824 116.659 16.9474 116.703C16.9123 116.746 16.8614 116.775 16.8057 116.781L16.7674 116.802Z" fill="white"/>
<path d="M16.6529 112.879C16.6204 112.88 16.5881 112.873 16.5594 112.857C15.0845 112.139 14.1494 109.576 14.1111 109.457C14.1007 109.43 14.0957 109.402 14.0964 109.374C14.0971 109.345 14.1035 109.317 14.1151 109.292C14.1268 109.266 14.1436 109.242 14.1645 109.223C14.1853 109.204 14.2098 109.189 14.2366 109.179C14.2633 109.17 14.2917 109.165 14.32 109.167C14.3484 109.168 14.3762 109.175 14.4018 109.188C14.4273 109.2 14.4501 109.218 14.4688 109.239C14.4875 109.261 14.5018 109.285 14.5107 109.312C14.5107 109.338 15.4245 111.82 16.7464 112.462C16.7898 112.483 16.8247 112.518 16.8455 112.562C16.8663 112.605 16.8717 112.654 16.8608 112.701C16.85 112.748 16.8235 112.79 16.7857 112.82C16.7479 112.85 16.7011 112.866 16.6529 112.866V112.879Z" fill="white"/>
<path d="M16.6273 114.579C16.5847 114.579 16.5431 114.566 16.5081 114.542C16.4732 114.517 16.4465 114.483 16.4317 114.443C16.4106 114.391 16.4108 114.333 16.4323 114.281C16.4538 114.23 16.4948 114.188 16.5465 114.167C19.0288 113.172 20.576 110.218 20.593 110.184C20.6189 110.134 20.6637 110.096 20.7175 110.079C20.7713 110.062 20.8298 110.067 20.8799 110.093C20.9301 110.119 20.9679 110.163 20.985 110.217C21.0022 110.271 20.9972 110.329 20.9713 110.38C20.9033 110.507 19.3348 113.508 16.7208 114.562C16.6917 114.576 16.6594 114.582 16.6273 114.579Z" fill="white"/>
<path d="M103.393 91.711C103.393 91.711 101.536 88.7016 101.353 85.433C101.17 82.1643 101.889 80.8042 102.875 80.4131C103.861 80.0221 103.937 81.225 104.443 81.9348C104.949 82.6446 105.982 82.2408 106.364 80.0263C106.747 77.8118 108.141 74.0756 111.04 73.3487C114.228 72.5581 112.519 76.2986 111.716 77.7565C110.913 79.2145 110.292 81.2037 110.819 81.7435C111.346 82.2833 112.166 81.2845 112.944 82.2111C113.892 83.329 110.947 87.3542 109.255 88.3276L103.393 91.711Z" fill="#1F8FFF"/>
<path d="M105.94 90.4491C105.912 90.448 105.884 90.4414 105.859 90.4297C105.833 90.418 105.811 90.4014 105.792 90.3809C105.773 90.3603 105.758 90.3363 105.748 90.31C105.739 90.2838 105.734 90.256 105.736 90.228C106.023 84.97 107.663 79.8751 110.496 75.4362C110.512 75.4131 110.533 75.3934 110.557 75.3785C110.58 75.3635 110.607 75.3536 110.635 75.3492C110.663 75.3448 110.691 75.3461 110.718 75.3531C110.746 75.36 110.771 75.3724 110.794 75.3894C110.838 75.4225 110.868 75.4718 110.877 75.5266C110.885 75.5814 110.872 75.6374 110.84 75.6827C108.058 80.0567 106.448 85.0731 106.165 90.2493C106.163 90.2772 106.156 90.3046 106.144 90.3297C106.132 90.3549 106.115 90.3774 106.094 90.396C106.073 90.4145 106.048 90.4288 106.022 90.4379C105.995 90.447 105.967 90.4508 105.94 90.4491Z" fill="white"/>
<path d="M106.182 87.9368C106.146 87.9364 106.111 87.9277 106.08 87.9113C104.889 87.2524 104.231 85.2972 104.205 85.2164C104.196 85.1899 104.192 85.1618 104.193 85.1338C104.195 85.1057 104.202 85.0782 104.214 85.0529C104.227 85.0276 104.244 85.005 104.265 84.9864C104.286 84.9677 104.31 84.9535 104.337 84.9444C104.39 84.927 104.449 84.9315 104.499 84.957C104.549 84.9825 104.587 85.0269 104.605 85.0804C104.605 85.0804 105.242 86.9634 106.305 87.5372C106.353 87.5657 106.388 87.6116 106.403 87.6655C106.418 87.7194 106.412 87.777 106.386 87.8263C106.366 87.8628 106.337 87.8929 106.3 87.9126C106.264 87.9322 106.223 87.9407 106.182 87.9368Z" fill="white"/>
<path d="M106.39 86.6488C106.343 86.6483 106.297 86.6321 106.26 86.6029C106.223 86.5737 106.197 86.533 106.186 86.4873C106.179 86.4605 106.177 86.4326 106.181 86.4051C106.185 86.3777 106.195 86.3514 106.209 86.3276C106.223 86.3039 106.242 86.2832 106.264 86.2668C106.287 86.2505 106.312 86.2387 106.339 86.2322C109.408 85.4544 110.471 83.8477 110.479 83.8307C110.494 83.807 110.514 83.7865 110.537 83.7703C110.56 83.7542 110.586 83.7427 110.613 83.7366C110.641 83.7305 110.669 83.7298 110.697 83.7346C110.724 83.7395 110.751 83.7497 110.774 83.7648C110.798 83.7799 110.819 83.7995 110.835 83.8225C110.851 83.8455 110.862 83.8714 110.869 83.8989C110.875 83.9263 110.875 83.9547 110.87 83.9824C110.866 84.0101 110.855 84.0365 110.84 84.0602C110.794 84.1325 109.688 85.8199 106.445 86.6445L106.39 86.6488Z" fill="white"/>
<path d="M57.1475 85.1058C57.1475 85.1058 53.0712 84.1112 52.8587 76.4772C52.6334 68.2397 53.8576 58.625 49.0332 57.8472C44.2089 57.0693 41.5311 62.9478 41.5906 69.8124C41.6458 75.8227 44.0686 88.8718 57.1305 91.4306L57.1475 85.1058Z" fill="#1F8FFF"/>
<path opacity="0.2" d="M57.1475 85.1058C57.1475 85.1058 53.0712 84.1112 52.8587 76.4772C52.6334 68.2397 53.8576 58.625 49.0332 57.8472C44.2089 57.0693 41.5311 62.9478 41.5906 69.8124C41.6458 75.8227 44.0686 88.8718 57.1305 91.4306L57.1475 85.1058Z" fill="black"/>
<path d="M57.1476 90.6484H57.1093C54.1722 90.1129 51.7792 88.4934 49.9982 85.8411C44.719 77.9649 46.381 63.258 46.9293 60.6907C46.9416 60.636 46.9745 60.5882 47.0213 60.5573C47.0681 60.5264 47.125 60.5148 47.1801 60.5249C47.2351 60.5382 47.283 60.572 47.3138 60.6194C47.3447 60.6669 47.3561 60.7243 47.3459 60.78C46.806 63.3303 45.1526 77.8501 50.351 85.6031C51.1077 86.8054 52.106 87.8373 53.2826 88.6334C54.4591 89.4295 55.7883 89.9724 57.1858 90.2276C57.2136 90.2327 57.24 90.2433 57.2636 90.2587C57.2872 90.2741 57.3076 90.2941 57.3234 90.3174C57.3392 90.3407 57.3502 90.367 57.3558 90.3946C57.3614 90.4223 57.3614 90.4508 57.3559 90.4784C57.3468 90.5268 57.321 90.5704 57.2828 90.6015C57.2447 90.6327 57.1968 90.6493 57.1476 90.6484Z" fill="white"/>
<path d="M57.1477 110.239C52.9354 110.809 46.0963 110.8 42.1475 107.689C38.1988 104.578 39.0234 101.9 40.5408 100.782C42.0583 99.6639 43.3759 98.3887 40.7661 95.9064C38.1563 93.4241 33.9653 89.4371 32.6051 83.4566C31.2449 77.4761 31.9165 73.7357 34.5859 72.4903C37.1744 71.2831 37.8588 73.2044 39.4442 77.1659C41.0297 81.1273 44.5958 77.7312 47.6477 78.9681C50.6996 80.205 50.5763 82.6533 50.7676 84.7573C50.9589 86.8613 51.9663 87.4436 53.6962 87.4436C55.4262 87.4436 57.1477 88.4383 57.1477 90.419V110.239Z" fill="#1F8FFF"/>
<path d="M57.1476 103.294C57.1294 103.298 57.1106 103.298 57.0924 103.294C56.9096 103.243 52.5528 101.976 46.2068 96.1487C39.4484 89.9429 36.2606 80.6342 36.2265 80.5407C36.2103 80.4872 36.2153 80.4294 36.2407 80.3795C36.266 80.3295 36.3097 80.2914 36.3626 80.273C36.4156 80.2553 36.4734 80.2593 36.5235 80.2839C36.5736 80.3086 36.612 80.352 36.6303 80.4047C36.6601 80.4982 39.8182 89.7049 46.4958 95.8341C52.7526 101.585 57.1604 102.873 57.2071 102.886C57.2339 102.894 57.2589 102.907 57.2807 102.924C57.3025 102.942 57.3206 102.963 57.334 102.988C57.3474 103.012 57.3559 103.039 57.3589 103.067C57.3619 103.094 57.3595 103.122 57.3517 103.149C57.3379 103.192 57.3105 103.23 57.2737 103.256C57.237 103.282 57.1927 103.295 57.1476 103.294Z" fill="white"/>
<path d="M47.9792 97.6279C47.9365 97.6285 47.8946 97.6158 47.8595 97.5914C47.8245 97.567 47.7979 97.5322 47.7837 97.4919C46.4193 93.9894 46.109 86.4957 46.0835 86.177C46.0823 86.1209 46.1029 86.0665 46.1409 86.0253C46.179 85.9841 46.2315 85.9592 46.2875 85.9559C46.343 85.9567 46.3963 85.978 46.4371 86.0157C46.4779 86.0533 46.5033 86.1047 46.5085 86.1599C46.5085 86.2365 46.8273 93.9002 48.1662 97.3388C48.1765 97.3651 48.1814 97.3931 48.1807 97.4212C48.1801 97.4493 48.1738 97.477 48.1624 97.5028C48.1509 97.5285 48.1344 97.5516 48.1139 97.5709C48.0935 97.5902 48.0693 97.6052 48.043 97.6151C48.0225 97.6225 48.001 97.6268 47.9792 97.6279Z" fill="white"/>
<path d="M47.9456 102.665C47.5537 102.668 47.162 102.648 46.7725 102.605C46.7446 102.602 46.7176 102.593 46.6931 102.579C46.6686 102.565 46.647 102.547 46.6297 102.525C46.6123 102.503 46.5995 102.477 46.5919 102.45C46.5843 102.423 46.5821 102.395 46.5854 102.367C46.5888 102.339 46.5976 102.312 46.6114 102.288C46.6252 102.263 46.6436 102.242 46.6657 102.224C46.6878 102.207 46.7131 102.194 46.7402 102.186C46.7673 102.179 46.7956 102.177 46.8235 102.18C46.8617 102.18 50.819 102.631 52.634 100.782C52.6528 100.759 52.6762 100.741 52.7024 100.728C52.7287 100.715 52.7574 100.708 52.7866 100.706C52.8159 100.705 52.8451 100.71 52.8724 100.72C52.8998 100.731 52.9247 100.747 52.9455 100.767C52.9664 100.788 52.9827 100.813 52.9936 100.84C53.0045 100.867 53.0096 100.896 53.0087 100.925C53.0078 100.955 53.0008 100.983 52.9883 101.01C52.9757 101.036 52.9578 101.06 52.9357 101.079C51.6223 102.435 49.3313 102.665 47.9456 102.665Z" fill="white"/>
<path d="M44.8849 22.177L44.4258 19.529L42.0625 21.0847C41.8466 20.6596 41.5405 20.2868 41.1657 19.9923L42.2963 16.9319L40.1711 16.4601L38.6154 19.4354C38.0525 19.5304 37.5068 19.708 36.9959 19.9625L36.3201 17.7182L33.7953 19.7032L33.961 22.3386C33.4469 22.9145 32.9806 23.5315 32.5669 24.1833L30.4841 24.077L29.0219 27.3542L30.8114 28.1193C30.6246 28.7971 30.5064 29.492 30.4586 30.1935L28.1846 32.2848L28.6394 34.9371L31.0069 33.3814C31.2216 33.8061 31.528 34.1777 31.9038 34.4696L30.7944 37.5342L32.9197 38.0018L35.1469 35.834C35.6612 35.7532 35.5337 34.7841 36.0948 34.5078L36.7706 36.7436L39.2912 34.7629L39.2274 33.7257C39.7375 33.1562 41.6672 31.9022 42.0838 31.2477L42.6066 30.3976L44.0688 27.1204L43.3887 25.8878L42.6321 24.2811L44.8849 22.177ZM37.1702 30.8949C35.2319 32.4166 34.6199 32.7524 34.2926 30.7164C33.9653 28.6803 35.0747 25.586 37.0129 24.06C38.9512 22.5341 39.6907 22.4278 40.0393 24.4596C40.3878 26.4913 39.1127 29.3902 37.1702 30.8949Z" fill="#E0E0E0"/>
<path d="M40.1883 16.4601L42.9468 18.0498L41.3912 21.0166L38.6326 19.427L40.1883 16.4601Z" fill="#F5F5F5"/>
<path d="M47.1848 21.118L44.8215 22.6737L42.0629 21.084L44.4262 19.5283L47.1848 21.118Z" fill="#F5F5F5"/>
<path d="M46.8061 28.697L45.0167 27.9361L42.2581 26.3464L44.0475 27.1073L46.8061 28.697Z" fill="#E0E0E0"/>
<path d="M30.7905 37.5336L33.5491 39.1191L34.6798 36.0587L31.9212 34.469L30.7905 37.5336Z" fill="#E0E0E0"/>
<path d="M39.5037 38.3328L36.7493 36.7431L36.0735 34.5073L38.8321 36.097L39.5037 38.3328Z" fill="#E0E0E0"/>
<path d="M47.6392 23.7659L47.1843 21.1178L44.821 22.6735C44.6035 22.2483 44.296 21.8755 43.9199 21.5811L45.0506 18.5208L42.9466 18.049L41.3866 21.0243C40.8238 21.1193 40.2781 21.2969 39.7672 21.5514L39.0956 19.3156L36.5708 21.3006L36.7365 23.9359C36.2218 24.5159 35.7555 25.1372 35.3424 25.7934L33.2554 25.6871L31.7932 28.9643L33.5827 29.7294C33.3975 30.4091 33.2794 31.1052 33.2299 31.8079L30.9601 33.8694L31.4149 36.5217L33.7782 34.966C33.9958 35.39 34.3033 35.7614 34.6793 36.0542L33.5487 39.1146L35.6739 39.5864L37.2296 36.611C37.7946 36.5171 38.3421 36.338 38.8533 36.0797L39.5249 38.3155L42.0497 36.3347L41.8839 33.6994C42.3981 33.1235 42.8644 32.5065 43.2781 31.8547L45.3651 31.9567L46.8273 28.6795L45.0123 27.9187C45.2005 27.2395 45.3201 26.5432 45.3694 25.8402L47.6392 23.7659ZM39.9329 32.5007C37.999 34.0224 36.1457 33.6101 35.7929 31.5784C35.4401 29.5466 36.728 26.6605 38.6663 25.1388C40.6045 23.6171 42.4535 24.0337 42.8063 26.0654C43.1591 28.0972 41.8712 30.9791 39.9329 32.5007Z" fill="#EBEBEB"/>
<path d="M39.0958 19.3076L36.3372 17.7179L33.8124 19.7029L36.571 21.2926L39.0958 19.3076Z" fill="#F5F5F5"/>
<path d="M33.8124 19.7028L33.9781 22.3381L36.7367 23.9278L36.571 21.2925L33.8124 19.7028Z" fill="#E0E0E0"/>
<path d="M35.3426 25.7723L32.584 24.1826L30.5012 24.0806L33.2556 25.6703L35.3426 25.7723Z" fill="#F5F5F5"/>
<path d="M30.501 24.0806L29.0388 27.3535L31.7932 28.9432L33.2553 25.6703L30.501 24.0806Z" fill="#E0E0E0"/>
<path d="M33.23 31.7826L30.4757 30.1929L28.2017 32.2841L30.956 33.8738L33.23 31.7826Z" fill="#F5F5F5"/>
<path d="M31.4151 36.5258L28.6565 34.9361L28.2017 32.2838L30.956 33.8735L31.4151 36.5258Z" fill="#E0E0E0"/>
<path d="M42.9468 18.0498L40.1882 16.4601L42.2965 16.9319L45.0508 18.5216L42.9468 18.0498Z" fill="#F5F5F5"/>
<path d="M32.5326 10.156V6.1988L29.383 7.61848C29.2161 6.94708 28.928 6.31183 28.5329 5.744L30.5179 1.74425L28.0951 0.345825L25.6213 4.06504C24.9319 4.00481 24.2373 4.07254 23.5725 4.26481L23.224 0.826137L19.798 2.80688L19.4537 6.63236C18.7081 7.29302 18.0225 8.01845 17.405 8.80012L14.9312 7.95002L12.5084 12.1495L14.4891 13.8498C14.1231 14.7753 13.8387 15.7311 13.639 16.7061L10.4894 18.9206V22.8821L13.639 21.4624C13.8058 22.1338 14.0939 22.7691 14.4891 23.3369L12.5169 27.3409L14.9397 28.7393L17.4135 25.0201C18.1029 25.0802 18.7974 25.0124 19.4622 24.8204L19.8065 28.259L23.2325 26.2783L23.581 22.4528C24.6503 22.0627 25.5975 21.397 26.3268 20.5231L28.1036 21.1479L30.5264 16.9526L29.0387 15.6775C29.3616 14.6141 29.4813 13.4995 29.3915 12.3918L32.5326 10.156ZM21.511 20.0428C18.8842 21.5602 17.2605 20.4678 17.2605 17.4457C17.2605 14.4236 19.4325 10.6874 22.0636 9.16992C24.6946 7.65248 26.2843 8.74487 26.2843 11.7925C26.2843 14.8401 24.1421 18.5211 21.511 20.0428Z" fill="#E0E0E0"/>
<path d="M30.8499 1.93115L28.0955 0.345703L25.6217 4.06491L28.376 5.65461L30.8499 1.93115Z" fill="#F5F5F5"/>
<path d="M35.2913 7.7883L32.5327 6.19861L29.3831 7.61828L32.1417 9.20798L35.2913 7.7883Z" fill="#F5F5F5"/>
<path d="M22.5525 29.8488L19.7981 28.2591L19.4539 24.8204L22.2082 26.4101L22.5525 29.8488Z" fill="#E0E0E0"/>
<path d="M12.5046 27.3409L15.2632 28.9306L17.2482 24.9309L14.4896 23.3412L12.5046 27.3409Z" fill="#E0E0E0"/>
<path d="M35.2916 11.7668V7.80956L32.142 9.21648C31.9769 8.54448 31.6887 7.90891 31.2919 7.34199L33.2769 3.34225L30.8541 1.93958L28.3803 5.66304C27.6909 5.60072 26.9959 5.66848 26.3315 5.86281L25.983 2.41564L22.5571 4.39638L22.2085 8.22186C21.464 8.88363 20.7785 9.60895 20.1598 10.3896L17.686 9.53952L15.2632 13.739L17.2482 15.4392C16.8802 16.3641 16.5957 17.3201 16.3981 18.2956L13.2484 20.5101V24.4716L16.3981 23.0519C16.563 23.724 16.8513 24.3596 17.2482 24.9264L15.2632 28.9262L17.686 30.3246L20.1598 26.6054C20.8492 26.6656 21.5438 26.5979 22.2085 26.4056L22.5571 29.8443L25.983 27.8635L26.3273 24.0381C27.0729 23.3774 27.7585 22.652 28.376 21.8703L30.8498 22.7204L33.2726 18.5251L31.2876 16.8249C31.6555 15.9 31.94 14.9441 32.1378 13.9686L35.2916 11.7668ZM24.27 21.6535C21.6389 23.171 19.5052 21.9383 19.5052 18.9034C19.5052 15.8686 21.6304 12.1748 24.27 10.6532C26.9096 9.13147 29.0306 10.3684 29.0306 13.4032C29.0306 16.4381 26.8969 20.1106 24.27 21.6323V21.6535Z" fill="#EBEBEB"/>
<path d="M17.4053 8.80876L20.1597 10.3985L17.6859 9.5356L14.9315 7.94165L17.4053 8.80876Z" fill="#F0F0F0"/>
<path d="M14.9311 7.94616L12.5077 12.1471L15.2654 13.738L17.6888 9.53701L14.9311 7.94616Z" fill="#F5F5F5"/>
<path d="M12.5046 12.141L15.2632 13.7307L17.2482 15.4394L14.4896 13.854L12.5046 12.141Z" fill="#E0E0E0"/>
<path d="M13.6389 16.7106L16.3975 18.3003L13.2478 20.5148L10.4893 18.9251L13.6389 16.7106Z" fill="#F5F5F5"/>
<path d="M10.4893 18.925L13.2478 20.5147V24.4762L10.4893 22.8865V18.925Z" fill="#E0E0E0"/>
<path d="M25.9827 2.41562L23.2241 0.825928L19.7982 2.80667L22.5526 4.39637L25.9827 2.41562Z" fill="#F5F5F5"/>
<path d="M61.3474 115.926L101.302 92.8544C101.39 92.8235 101.467 92.766 101.521 92.6898C101.574 92.6137 101.603 92.5227 101.603 92.4294C101.603 92.3361 101.574 92.2451 101.521 92.1689C101.467 92.0928 101.39 92.0353 101.302 92.0043L97.6086 89.8791C97.3798 89.7639 97.1273 89.704 96.8712 89.704C96.615 89.704 96.3625 89.7639 96.1337 89.8791L56.166 112.93C56.078 112.961 56.0017 113.018 55.9478 113.094C55.8938 113.17 55.8649 113.261 55.8649 113.355C55.8649 113.448 55.8938 113.539 55.9478 113.615C56.0017 113.691 56.078 113.749 56.166 113.78L59.8725 115.905C60.0996 116.023 60.3513 116.087 60.6074 116.091C60.8635 116.094 61.1169 116.038 61.3474 115.926Z" fill="#E0E0E0"/>
<path d="M100.206 3.77591L64.1784 24.578C63.6428 24.9275 63.1971 25.3983 62.8773 25.9521C62.5576 26.5059 62.3728 27.1273 62.3379 27.7659V113.231C62.3379 114.404 63.1625 114.88 64.1784 114.294L100.206 93.4918C100.742 93.143 101.188 92.6725 101.508 92.1185C101.828 91.5645 102.012 90.9427 102.046 90.3039V4.83854C102.046 3.6654 101.226 3.18934 100.206 3.77591Z" fill="#455A64"/>
<path d="M64.1782 24.5787L100.206 3.77664C101.115 3.24957 101.868 3.57686 102.021 4.49073C101.936 3.91616 101.73 3.3661 101.417 2.87672C101.104 2.38734 100.691 1.96973 100.206 1.65137L98.7094 0.801268C98.1391 0.511893 97.5085 0.361084 96.869 0.361084C96.2294 0.361084 95.5988 0.511893 95.0285 0.801268L58.9968 21.5864C58.4541 21.9266 58.0066 22.399 57.6961 22.9593L62.8775 25.9346C63.1879 25.3788 63.6357 24.9119 64.1782 24.5787Z" fill="#37474F"/>
<path d="M57.148 110.24C57.1829 110.878 57.3677 111.499 57.6875 112.053C58.0072 112.607 58.4529 113.078 58.9885 113.427L60.4889 114.278C61.0082 114.537 61.5766 114.684 62.1567 114.709C62.7368 114.734 63.3157 114.636 63.8553 114.422C63.0052 114.754 62.3294 114.265 62.3294 113.215V27.7665C62.3507 27.1253 62.5366 26.5002 62.8692 25.9516L57.6878 22.9762C57.3599 23.5207 57.1742 24.139 57.148 24.7742V110.24Z" fill="#263238"/>
<path d="M65.1687 35.9655L99.2281 16.3068C99.8402 15.9583 100.333 16.2431 100.333 16.9444V80.2007C100.313 80.5841 100.202 80.9572 100.01 81.2896C99.818 81.622 99.5501 81.9043 99.2281 82.1135L65.1814 101.772C64.5694 102.125 64.0763 101.84 64.0763 101.135V37.8782C64.0956 37.4961 64.2046 37.1238 64.3943 36.7916C64.5841 36.4593 64.8494 36.1763 65.1687 35.9655Z" fill="white"/>
<path d="M82.1921 17.4164C82.0041 17.5399 81.8477 17.7057 81.7355 17.9006C81.6233 18.0955 81.5584 18.314 81.546 18.5386C81.546 18.9636 81.8351 19.1209 82.1921 18.9126C82.3808 18.7899 82.5378 18.6243 82.6501 18.4292C82.7624 18.2342 82.8268 18.0153 82.8382 17.7905C82.8382 17.3782 82.5492 17.2124 82.1921 17.4164Z" fill="#37474F"/>
<path d="M82.192 94.9673C81.4489 95.4534 80.8308 96.1077 80.3877 96.8771C79.9447 97.6466 79.6891 98.5097 79.6417 99.3963C79.6417 101.024 80.7851 101.687 82.192 100.871C82.9348 100.385 83.5527 99.7306 83.9958 98.9611C84.4388 98.1917 84.6946 97.3288 84.7423 96.4422C84.7508 94.8143 83.6032 94.1512 82.192 94.9673Z" fill="#37474F"/>
<path d="M76.0752 23.996C75.7016 24.244 75.3916 24.5763 75.1701 24.9661C74.9486 25.356 74.8218 25.7924 74.8 26.2403C74.8 27.0649 75.3781 27.4007 76.0752 26.9884C76.4527 26.7427 76.7669 26.4114 76.9922 26.0215C77.2174 25.6315 77.3475 25.1938 77.3716 24.7441C77.3716 23.9195 76.7935 23.5837 76.0752 23.996Z" fill="#37474F"/>
<path d="M79.2505 23.7156C79.2505 24.2681 79.6756 24.4764 80.1729 24.1831L88.674 19.2653C88.9373 19.1008 89.1581 18.8765 89.3184 18.6106C89.4786 18.3447 89.5739 18.0447 89.5963 17.7351C89.5963 17.1868 89.1713 16.9785 88.674 17.2718L80.1729 22.1896C79.9101 22.3537 79.6897 22.5773 79.5294 22.8424C79.3692 23.1075 79.2737 23.4067 79.2505 23.7156Z" fill="#37474F"/>
<path d="M60.0213 38.7032C60.3229 38.8997 60.574 39.1645 60.7542 39.4761C60.9344 39.7877 61.0386 40.1375 61.0584 40.4969C61.0584 41.16 60.5951 41.4278 60.0213 41.0962C59.7207 40.899 59.4706 40.634 59.2912 40.3224C59.1118 40.0108 59.0081 39.6615 58.9884 39.3025C58.9884 38.6437 59.4517 38.3759 60.0213 38.7032Z" fill="#37474F"/>
<path d="M60.0213 46.6853C60.3229 46.8818 60.574 47.1466 60.7542 47.4582C60.9344 47.7699 61.0386 48.1196 61.0584 48.479C61.0584 49.1379 60.5951 49.4056 60.0213 49.0783C59.7207 48.8811 59.4706 48.6161 59.2912 48.3045C59.1118 47.993 59.0081 47.6436 58.9884 47.2846C58.9884 46.6215 59.4517 46.3538 60.0213 46.6853Z" fill="#37474F"/>
<path d="M59.6982 38.8648C59.9998 39.0612 60.2509 39.326 60.4311 39.6377C60.6113 39.9493 60.7155 40.299 60.7353 40.6585C60.7353 41.3173 60.272 41.5851 59.6982 41.2578C59.3966 41.0613 59.1455 40.7965 58.9653 40.4849C58.7851 40.1733 58.6809 39.8235 58.6611 39.4641C58.6653 38.801 59.1286 38.546 59.6982 38.8648Z" fill="#455A64"/>
<path d="M59.6982 46.8423C60.0004 47.0392 60.2518 47.3047 60.4321 47.6171C60.6123 47.9296 60.7162 48.2801 60.7353 48.6403C60.7353 49.2991 60.272 49.5669 59.6982 49.2354C59.3959 49.0397 59.1442 48.775 58.9639 48.4632C58.7836 48.1514 58.6799 47.8013 58.6611 47.4417C58.6653 46.7828 59.1286 46.5151 59.6982 46.8423Z" fill="#455A64"/>
<path d="M107.228 18.9467C107.228 18.2411 106.735 17.9563 106.123 18.3091L102.046 20.6596L72.0759 37.9678C71.754 38.1769 71.4861 38.4592 71.294 38.7916C71.1019 39.124 70.9912 39.4971 70.9708 39.8805V103.12C70.9708 103.825 71.4638 104.11 72.0759 103.757L102.059 86.445L106.123 84.0987C106.445 83.8896 106.712 83.6073 106.905 83.2749C107.097 82.9425 107.207 82.5694 107.228 82.186V18.9467Z" fill="white"/>
<path d="M107.653 18.9466C107.68 18.7334 107.643 18.5171 107.547 18.3247C107.452 18.1323 107.302 17.9723 107.116 17.8648C106.93 17.7573 106.716 17.707 106.502 17.7202C106.287 17.7334 106.081 17.8096 105.91 17.9392L102.021 20.1877L71.8634 37.6149C71.4751 37.8599 71.1523 38.1958 70.9227 38.5934C70.6932 38.9911 70.5638 39.4386 70.5457 39.8974V103.12C70.5287 103.332 70.5695 103.545 70.6638 103.736C70.7581 103.927 70.9024 104.088 71.0813 104.204C71.2335 104.292 71.4068 104.338 71.5828 104.335C71.832 104.328 72.075 104.256 72.2884 104.127L102.467 86.7L106.348 84.4599C106.734 84.2125 107.055 83.8761 107.284 83.4789C107.514 83.0818 107.644 82.6355 107.666 82.1774L107.653 18.9466ZM102.029 85.9731L101.681 86.1771L71.8804 103.383C71.8303 103.422 71.7723 103.449 71.7105 103.462C71.6487 103.475 71.5848 103.474 71.5233 103.46C71.4681 103.426 71.4128 103.307 71.4128 103.111V39.8804C71.4348 39.5718 71.5266 39.2722 71.6812 39.0042C71.8358 38.7362 72.0493 38.5068 72.3054 38.3332L102.076 21.1186L106.327 18.6575C106.377 18.619 106.435 18.5922 106.497 18.579C106.558 18.5657 106.622 18.5664 106.684 18.581C106.739 18.615 106.794 18.734 106.794 18.9296V82.1859C106.772 82.4945 106.68 82.7941 106.526 83.0621C106.371 83.3301 106.158 83.5596 105.902 83.7331L102.021 85.9731H102.029Z" fill="#1F8FFF"/>
<path d="M89.0991 33.6402C92.9245 31.4385 96.0062 33.2152 96.0062 37.6315C96.0062 42.0478 92.9118 47.4077 89.0991 49.5925C85.2863 51.7772 82.192 50.0175 82.192 45.6055C82.192 41.1934 85.2863 35.8463 89.0991 33.6402Z" fill="#1F8FFF"/>
<path d="M89.0991 37.1089C90.336 36.3948 91.3391 36.9729 91.3391 38.3841C91.2971 39.1615 91.0724 39.9181 90.6832 40.5923C90.294 41.2666 89.7513 41.8396 89.0991 42.2648C87.8622 42.9789 86.8591 42.4008 86.8591 40.9897C86.9011 40.2123 87.1258 39.4557 87.515 38.7814C87.9042 38.1072 88.4469 37.5342 89.0991 37.1089Z" fill="#1F8FFF"/>
<path d="M93.4643 44.726C93.4643 42.3797 91.8193 41.4276 89.7833 42.6008L88.5082 43.3361C86.4764 44.5093 84.8272 47.3656 84.8272 49.7119V50.3452C86.0046 50.732 87.4838 50.5238 89.0777 49.5929C90.8435 48.5037 92.3367 47.0251 93.443 45.2701L93.4643 44.726Z" fill="#1F8FFF"/>
<path opacity="0.7" d="M89.0991 37.1089C90.336 36.3948 91.3391 36.9729 91.3391 38.3841C91.2971 39.1615 91.0724 39.9181 90.6832 40.5923C90.294 41.2666 89.7513 41.8396 89.0991 42.2648C87.8622 42.9789 86.8591 42.4008 86.8591 40.9897C86.9011 40.2123 87.1258 39.4557 87.515 38.7814C87.9042 38.1072 88.4469 37.5342 89.0991 37.1089Z" fill="white"/>
<path opacity="0.7" d="M93.4643 44.726C93.4643 42.3797 91.8193 41.4276 89.7833 42.6008L88.5082 43.3361C86.4764 44.5093 84.8272 47.3656 84.8272 49.7119V50.3452C86.0046 50.732 87.4838 50.5238 89.0777 49.5929C90.8435 48.5037 92.3367 47.0251 93.443 45.2701L93.4643 44.726Z" fill="white"/>
<path d="M75.7354 59.3053L84.6233 54.1749C85.0483 53.9411 85.3586 54.1281 85.3586 54.5999V54.8932C85.3451 55.1487 85.2715 55.3973 85.1437 55.6189C85.0159 55.8405 84.8376 56.0288 84.6233 56.1684L75.7354 61.2988C75.3316 61.5325 75.0001 61.3413 75.0001 60.8737V60.5804C75.0139 60.3251 75.0876 60.0765 75.2154 59.855C75.3431 59.6334 75.5213 59.4451 75.7354 59.3053Z" fill="#1F8FFF"/>
<path opacity="0.1" d="M75.7354 59.3053L84.6233 54.1749C85.0483 53.9411 85.3586 54.1281 85.3586 54.5999V54.8932C85.3451 55.1487 85.2715 55.3973 85.1437 55.6189C85.0159 55.8405 84.8376 56.0288 84.6233 56.1684L75.7354 61.2988C75.3316 61.5325 75.0001 61.3413 75.0001 60.8737V60.5804C75.0139 60.3251 75.0876 60.0765 75.2154 59.855C75.3431 59.6334 75.5213 59.4451 75.7354 59.3053Z" fill="black"/>
<path d="M75.3699 65.4986L102.259 49.9757C102.458 49.8566 102.624 49.9502 102.624 50.1882V53.3251C102.617 53.4524 102.58 53.5762 102.516 53.6868C102.453 53.7975 102.365 53.8919 102.259 53.9627L75.3699 69.4856C75.1658 69.6046 75.0001 69.5068 75.0001 69.2731V66.1362C75.0074 66.0083 75.0446 65.884 75.1089 65.7733C75.1731 65.6625 75.2625 65.5684 75.3699 65.4986Z" fill="#1F8FFF"/>
<path opacity="0.2" d="M75.3699 65.4986L102.259 49.9757C102.458 49.8566 102.624 49.9502 102.624 50.1882V53.3251C102.617 53.4524 102.58 53.5762 102.516 53.6868C102.453 53.7975 102.365 53.8919 102.259 53.9627L75.3699 69.4856C75.1658 69.6046 75.0001 69.5068 75.0001 69.2731V66.1362C75.0074 66.0083 75.0446 65.884 75.1089 65.7733C75.1731 65.6625 75.2625 65.5684 75.3699 65.4986Z" fill="white"/>
<path d="M75.7354 73.2596L84.6233 68.1292C85.0483 67.8954 85.3586 68.0867 85.3586 68.5542V68.8475C85.3455 69.1031 85.272 69.3518 85.1442 69.5735C85.0164 69.7951 84.8378 69.9833 84.6233 70.1227L75.7354 75.2531C75.3316 75.4911 75.0001 75.2998 75.0001 74.828V74.5347C75.0145 74.2795 75.0886 74.0313 75.2163 73.8098C75.344 73.5884 75.5218 73.3999 75.7354 73.2596Z" fill="#1F8FFF"/>
<path opacity="0.1" d="M75.7354 73.2596L84.6233 68.1292C85.0483 67.8954 85.3586 68.0867 85.3586 68.5542V68.8475C85.3455 69.1031 85.272 69.3518 85.1442 69.5735C85.0164 69.7951 84.8378 69.9833 84.6233 70.1227L75.7354 75.2531C75.3316 75.4911 75.0001 75.2998 75.0001 74.828V74.5347C75.0145 74.2795 75.0886 74.0313 75.2163 73.8098C75.344 73.5884 75.5218 73.3999 75.7354 73.2596Z" fill="black"/>
<path d="M75.3699 79.4524L102.259 63.9295C102.458 63.8105 102.624 63.9082 102.624 64.142V67.2789C102.617 67.4062 102.58 67.53 102.516 67.6407C102.453 67.7513 102.365 67.8457 102.259 67.9165L75.3699 83.4394C75.1658 83.5584 75.0001 83.4649 75.0001 83.2269V80.09C75.0074 79.9622 75.0446 79.8378 75.1089 79.7271C75.1731 79.6163 75.2625 79.5222 75.3699 79.4524Z" fill="#1F8FFF"/>
<path opacity="0.2" d="M75.3699 79.4524L102.259 63.9295C102.458 63.8105 102.624 63.9082 102.624 64.142V67.2789C102.617 67.4062 102.58 67.53 102.516 67.6407C102.453 67.7513 102.365 67.8457 102.259 67.9165L75.3699 83.4394C75.1658 83.5584 75.0001 83.4649 75.0001 83.2269V80.09C75.0074 79.9622 75.0446 79.8378 75.1089 79.7271C75.1731 79.6163 75.2625 79.5222 75.3699 79.4524Z" fill="white"/>
<path d="M86.0938 81.2334L96.7201 75.1084C97.1452 74.8704 97.4597 75.0616 97.4597 75.5334V78.8148C97.4458 79.0707 97.3715 79.3196 97.243 79.5412C97.1144 79.7628 96.9353 79.9509 96.7201 80.09L86.0938 86.2193C85.6688 86.4531 85.3585 86.2618 85.3585 85.7942V82.5086C85.3732 82.2534 85.4474 82.0053 85.5751 81.7839C85.7028 81.5625 85.8804 81.374 86.0938 81.2334Z" fill="#1F8FFF"/>
<path opacity="0.1" d="M86.0938 81.2334L96.7201 75.1084C97.1452 74.8704 97.4597 75.0616 97.4597 75.5334V78.8148C97.4458 79.0707 97.3715 79.3196 97.243 79.5412C97.1144 79.7628 96.9353 79.9509 96.7201 80.09L86.0938 86.2193C85.6688 86.4531 85.3585 86.2618 85.3585 85.7942V82.5086C85.3732 82.2534 85.4474 82.0053 85.5751 81.7839C85.7028 81.5625 85.8804 81.374 86.0938 81.2334Z" fill="black"/>
<path d="M111.257 67.3853C111.257 67.3853 106.038 60.1849 105.732 59.3093C105.49 58.6632 105.732 57.7026 105.808 57.2563C105.885 56.81 105.953 55.8154 106.029 55.5561C106.157 55.0715 105.532 55.1693 105.179 55.6113C104.826 56.0534 104.707 56.9375 104.525 57.082C104.342 57.2265 102.952 55.199 102.225 54.2639C101.498 53.3288 101.043 52.7592 100.597 53.1078C100.278 53.3586 100.516 53.9026 101.043 54.7017C101.351 55.132 101.635 55.579 101.894 56.0406C101.974 56.2149 101.541 56.2277 101.307 56.589C101.124 56.8695 101.307 57.3243 101.052 57.5411C100.895 57.6605 100.787 57.8335 100.75 58.0271C100.712 58.2207 100.747 58.4214 100.848 58.591C101.321 59.334 101.931 59.9802 102.646 60.4952C103.428 61.035 103.743 61.2263 104.206 61.9616C104.669 62.697 108.826 70.2077 109.107 70.6582C109.387 71.1088 109.927 72.0269 110.747 72.0524C111.568 72.0779 118.284 66.2972 118.628 66.0081C119.733 65.0858 120.086 64.954 120.273 65.7829C120.337 66.0775 120.386 66.3755 120.417 66.6755C120.549 67.7296 121.267 71.4956 121.267 71.4956C121.267 71.4956 124.668 73.1405 127.461 72.3457C130.253 71.5508 131.197 70.3649 131.197 70.3649L129.798 68.0866C130.177 67.1473 131.924 63.3388 132.489 60.6737L123.733 59.2583C123.554 59.22 123.265 59.1478 122.883 59.05C122.402 58.9225 121.182 58.5017 120.26 59.3093C117.251 61.9319 111.266 67.3853 111.266 67.3853" fill="#FFA8A7"/>
<path d="M128.616 111.566L127.048 113.746C127.761 114.079 128.539 114.246 129.326 114.235C130.733 114.286 131.12 113.81 131.171 113.717C131.409 113.207 131.039 112.289 130.937 111.498L128.616 111.566Z" fill="#37474F"/>
<path d="M127.137 112.7C127.137 112.7 125.233 112.577 123.919 112.416C122.606 112.254 121.565 112.892 121.871 113.432C122.177 113.971 122.904 114.422 124.034 114.8C124.999 115.127 126.159 115.361 127.163 115.65C128.166 115.939 128.863 116.318 129.445 116.114C130.095 115.888 130.376 115.629 130.321 115.153C130.179 114.476 130.003 113.806 129.794 113.147L127.137 112.7Z" fill="#37474F"/>
<path d="M131.171 109.376C131.171 109.376 130.933 111.357 130.916 111.782C130.899 112.207 128.982 112.343 128.616 111.565L128.557 109.143L131.171 109.376Z" fill="#F28F8F"/>
<path d="M129.241 110.592L129.925 113.602C129.925 113.602 129.989 113.967 128.425 114.201C126.861 114.435 124.404 113.381 123.983 113.168C123.562 112.955 123.516 112.526 125.054 112.611C126.593 112.696 127.137 112.7 127.137 112.7L126.635 111.37L129.241 110.592Z" fill="#FFA8A7"/>
<path d="M132.463 60.6486L133.547 60.3468C133.547 60.3468 135.812 67.5174 136.063 68.2103C136.314 68.9031 136.599 69.6342 136.11 70.4886C135.527 71.5044 132.463 75.5892 132.463 75.5892L130.516 73.685L132.726 69.6385L130.771 65.6855L132.463 60.6486Z" fill="#F28F8F"/>
<path d="M121.331 51.3354C121.077 50.8584 120.948 50.3247 120.956 49.7843C120.964 49.2439 121.109 48.7144 121.378 48.2453C122.457 46.2433 124.863 45.2699 127.728 45.6397C129.054 45.814 130.618 46.9149 131.473 48.5598C132.416 50.3833 132.506 54.0557 132.748 55.4457L121.331 51.3354Z" fill="#37474F"/>
<path d="M121.254 52.1218C121.254 52.1218 120.574 53.4182 120.693 53.5373C120.869 53.6402 121.062 53.7121 121.263 53.7498L121.254 52.1218Z" fill="#FFA8A7"/>
<path d="M123.32 48.0238C122.581 48.5042 121.306 49.3883 121.25 52.2999C121.191 55.2752 121.616 56.2571 122.058 56.6014C122.355 56.8352 124.102 56.7162 124.851 56.5419C125.599 56.3676 127.754 55.3007 128.531 53.6813C129.445 51.7771 129.258 49.0057 127.902 48.1556C127.212 47.7475 126.43 47.5213 125.628 47.4983C124.827 47.4752 124.033 47.6561 123.32 48.0238Z" fill="#FFA8A7"/>
<path d="M131.171 70.3477C132.48 72.3879 133.721 74.1731 133.993 76.4769C134.554 81.3183 132.718 86.8524 132.323 90.4356C133.066 91.4549 133.495 92.6695 133.555 93.9296C133.555 95.413 131.171 109.376 131.171 109.376C131.171 109.376 129.437 109.903 128.557 109.142L126.92 83.4563L127.77 80.3279L131.171 70.3477Z" fill="#1F8FFF"/>
<path opacity="0.2" d="M131.171 70.3477C132.48 72.3879 133.721 74.1731 133.993 76.4769C134.554 81.3183 132.718 86.8524 132.323 90.4356C133.066 91.4549 133.495 92.6695 133.555 93.9296C133.555 95.413 131.171 109.376 131.171 109.376C131.171 109.376 129.437 109.903 128.557 109.142L126.92 83.4563L127.77 80.3279L131.171 70.3477Z" fill="black"/>
<path d="M126.92 83.4566L127.77 80.3282C129.398 79.8997 130.968 79.276 132.446 78.4707C132.446 78.4707 131.562 80.0817 129.02 80.9658L127.707 84.9825L127.596 94.1849L126.92 83.4566Z" fill="#1F8FFF"/>
<path opacity="0.3" d="M126.92 83.4566L127.77 80.3282C129.398 79.8997 130.968 79.276 132.446 78.4707C132.446 78.4707 131.562 80.0817 129.02 80.9658L127.707 84.9825L127.596 94.1849L126.92 83.4566Z" fill="black"/>
<path d="M131.171 70.3477C131.872 71.4953 133.547 73.4505 133.19 75.3335C132.765 77.6118 131.532 79.2142 127.783 80.3279L124.264 93.0795C124.264 93.0795 126.096 94.7797 126.657 96.4246C127.218 98.0696 129.241 110.6 129.241 110.6C129.241 110.6 128.612 111.625 126.635 111.378C126.635 111.378 119.745 95.651 119.261 94.6267C118.673 93.5893 118.467 92.3786 118.678 91.205C118.895 89.5558 121.229 71.5038 121.229 71.5038L131.171 70.3477Z" fill="#1F8FFF"/>
<path opacity="0.2" d="M131.171 70.3477C131.872 71.4953 133.547 73.4505 133.19 75.3335C132.765 77.6118 131.532 79.2142 127.783 80.3279L124.264 93.0795C124.264 93.0795 126.096 94.7797 126.657 96.4246C127.218 98.0696 129.241 110.6 129.241 110.6C129.241 110.6 128.612 111.625 126.635 111.378C126.635 111.378 119.745 95.651 119.261 94.6267C118.673 93.5893 118.467 92.3786 118.678 91.205C118.895 89.5558 121.229 71.5038 121.229 71.5038L131.171 70.3477Z" fill="black"/>
<path d="M132.463 60.6485L123.707 59.2331C123.528 59.1948 123.239 59.1225 122.857 59.0248C122.857 59.0248 122.482 64.5165 120.234 65.7746C120.289 66.0382 120.336 66.3314 120.378 66.6672C120.51 67.7214 121.229 71.4873 121.229 71.4873C121.229 71.4873 124.629 73.1323 127.422 72.3374C130.214 71.5426 131.158 70.3567 131.158 70.3567L129.759 68.0784C130.15 67.1305 131.91 63.3221 132.463 60.6485Z" fill="#1F8FFF"/>
<path opacity="0.7" d="M132.463 60.6485L123.707 59.2331C123.528 59.1948 123.239 59.1225 122.857 59.0248C122.857 59.0248 122.482 64.5165 120.234 65.7746C120.289 66.0382 120.336 66.3314 120.378 66.6672C120.51 67.7214 121.229 71.4873 121.229 71.4873C121.229 71.4873 124.629 73.1323 127.422 72.3374C130.214 71.5426 131.158 70.3567 131.158 70.3567L129.759 68.0784C130.15 67.1305 131.91 63.3221 132.463 60.6485Z" fill="white"/>
<path d="M130.155 67.1729C128.992 67.8711 127.774 68.4725 126.512 68.9708C127.657 68.948 128.778 68.6381 129.772 68.0697L130.155 67.1729Z" fill="#1F8FFF"/>
<path d="M123.103 48.1689C123.103 48.1689 122.678 50.9317 123.681 52.5554C123.681 52.5554 124.055 51.4546 124.986 51.6628C125.917 51.8711 125.968 53.0995 125.314 53.7881C125.147 53.9812 124.93 54.1236 124.686 54.1988C124.443 54.2739 124.183 54.2789 123.936 54.2131C123.936 54.2131 123.788 56.2109 123.707 57.8856C123.626 59.5603 123.184 63.2115 125.067 64.6864C126.95 66.1614 131.677 66.6799 133.891 63.5856C135.124 61.8641 133.487 58.8207 132.727 55.4075C132.025 52.2707 131.63 47.6206 128.302 46.8725C124.974 46.1244 123.103 48.1689 123.103 48.1689Z" fill="#37474F"/>
<path d="M135.315 10.4199L134.614 10.845C134.673 10.5954 134.705 10.3404 134.712 10.0841C134.712 8.6602 133.713 8.08638 132.48 8.80897C132.105 9.03525 131.77 9.32257 131.49 9.65908C131.49 7.74634 130.147 6.96849 128.489 7.92486C127.615 8.49455 126.888 9.26213 126.367 10.1653C125.846 11.0685 125.544 12.0819 125.488 13.1233C125.488 13.221 125.488 13.3145 125.488 13.408C125.061 13.3543 124.629 13.4537 124.268 13.6886C123.619 14.1118 123.078 14.6823 122.69 15.3536C122.303 16.0249 122.079 16.7782 122.037 17.5523C122.036 17.7323 122.055 17.9118 122.092 18.0879L121.718 18.3047C120.702 18.8912 119.877 20.0346 119.877 20.855C119.877 21.6753 120.702 21.8708 121.718 21.28L135.319 13.4378C136.335 12.8512 137.16 11.7078 137.16 10.8875C137.16 10.0671 136.331 9.8291 135.315 10.4199Z" fill="#EBEBEB"/>
</svg>
