<svg width="25" height="25" viewBox="0 0 25 25" fill="none" xmlns="http://www.w3.org/2000/svg">
<path d="M18.75 1.04163H6.25C5.4212 1.04163 4.62634 1.37087 4.04029 1.95692C3.45424 2.54297 3.125 3.33782 3.125 4.16663V22.9166C3.12504 23.1226 3.18616 23.324 3.30062 23.4952C3.41509 23.6665 3.57776 23.8 3.76807 23.8788C3.95838 23.9576 4.16779 23.9782 4.36982 23.9381C4.57186 23.8979 4.75745 23.7987 4.90312 23.6531L7.13021 21.427L8.50833 23.4937C8.59305 23.6228 8.70541 23.7315 8.83728 23.8118C8.96916 23.8922 9.11725 23.9422 9.27083 23.9583C9.42433 23.9746 9.57952 23.9561 9.72487 23.9041C9.87023 23.8522 10.002 23.7682 10.1104 23.6583L12.5 21.2645L14.8885 23.6531C14.9976 23.762 15.1294 23.8454 15.2745 23.8972C15.4196 23.949 15.5745 23.968 15.7278 23.9527C15.8812 23.9375 16.0292 23.8884 16.1613 23.809C16.2934 23.7297 16.4062 23.622 16.4917 23.4937L17.8698 21.427L20.0969 23.6531C20.2426 23.7987 20.4281 23.8979 20.6302 23.9381C20.8322 23.9782 21.0416 23.9576 21.2319 23.8788C21.4222 23.8 21.5849 23.6665 21.6994 23.4952C21.8138 23.324 21.875 23.1226 21.875 22.9166V4.16663C21.875 3.33782 21.5458 2.54297 20.9597 1.95692C20.3737 1.37087 19.5788 1.04163 18.75 1.04163ZM19.7917 20.402L18.4448 19.0552C18.3365 18.9452 18.2047 18.861 18.0593 18.8091C17.9139 18.7572 17.7587 18.7387 17.6052 18.7552C17.452 18.7704 17.304 18.8194 17.172 18.8986C17.04 18.9779 16.9271 19.0854 16.8417 19.2135L15.4635 21.2812L13.2365 19.0552C13.0411 18.8599 12.7762 18.7502 12.5 18.7502C12.2238 18.7502 11.9589 18.8599 11.7635 19.0552L9.53646 21.2812L8.15833 19.2135C8.07281 19.0853 7.95991 18.9777 7.82778 18.8984C7.69565 18.8192 7.54758 18.7702 7.39423 18.755C7.24089 18.7399 7.08609 18.759 6.94101 18.8109C6.79592 18.8628 6.66416 18.9462 6.55521 19.0552L5.20833 20.402V4.16663C5.20833 3.89036 5.31808 3.62541 5.51343 3.43006C5.70878 3.23471 5.97373 3.12496 6.25 3.12496H18.75C19.0263 3.12496 19.2912 3.23471 19.4866 3.43006C19.6819 3.62541 19.7917 3.89036 19.7917 4.16663V20.402ZM13.5417 11.4583C13.5417 11.7346 13.4319 11.9995 13.2366 12.1949C13.0412 12.3902 12.7763 12.5 12.5 12.5H8.33333C8.05707 12.5 7.79211 12.3902 7.59676 12.1949C7.40141 11.9995 7.29167 11.7346 7.29167 11.4583C7.29167 11.182 7.40141 10.9171 7.59676 10.7217C7.79211 10.5264 8.05707 10.4166 8.33333 10.4166H12.5C12.7763 10.4166 13.0412 10.5264 13.2366 10.7217C13.4319 10.9171 13.5417 11.182 13.5417 11.4583ZM13.5417 15.625C13.5417 15.9012 13.4319 16.1662 13.2366 16.3615C13.0412 16.5569 12.7763 16.6666 12.5 16.6666H8.33333C8.05707 16.6666 7.79211 16.5569 7.59676 16.3615C7.40141 16.1662 7.29167 15.9012 7.29167 15.625C7.29167 15.3487 7.40141 15.0837 7.59676 14.8884C7.79211 14.693 8.05707 14.5833 8.33333 14.5833H12.5C12.7763 14.5833 13.0412 14.693 13.2366 14.8884C13.4319 15.0837 13.5417 15.3487 13.5417 15.625ZM17.7083 11.4583C17.7083 11.7346 17.5986 11.9995 17.4032 12.1949C17.2079 12.3902 16.9429 12.5 16.6667 12.5H15.625C15.3487 12.5 15.0838 12.3902 14.8884 12.1949C14.6931 11.9995 14.5833 11.7346 14.5833 11.4583C14.5833 11.182 14.6931 10.9171 14.8884 10.7217C15.0838 10.5264 15.3487 10.4166 15.625 10.4166H16.6667C16.9429 10.4166 17.2079 10.5264 17.4032 10.7217C17.5986 10.9171 17.7083 11.182 17.7083 11.4583ZM17.7083 15.625C17.7083 15.9012 17.5986 16.1662 17.4032 16.3615C17.2079 16.5569 16.9429 16.6666 16.6667 16.6666H15.625C15.3487 16.6666 15.0838 16.5569 14.8884 16.3615C14.6931 16.1662 14.5833 15.9012 14.5833 15.625C14.5833 15.3487 14.6931 15.0837 14.8884 14.8884C15.0838 14.693 15.3487 14.5833 15.625 14.5833H16.6667C16.9429 14.5833 17.2079 14.693 17.4032 14.8884C17.5986 15.0837 17.7083 15.3487 17.7083 15.625ZM17.7083 6.24996C17.7083 6.52623 17.5986 6.79118 17.4032 6.98653C17.2079 7.18188 16.9429 7.29163 16.6667 7.29163H8.33333C8.05707 7.29163 7.79211 7.18188 7.59676 6.98653C7.40141 6.79118 7.29167 6.52623 7.29167 6.24996C7.29167 5.97369 7.40141 5.70874 7.59676 5.51339C7.79211 5.31804 8.05707 5.20829 8.33333 5.20829H16.6667C16.9429 5.20829 17.2079 5.31804 17.4032 5.51339C17.5986 5.70874 17.7083 5.97369 17.7083 6.24996Z" fill="#7D8A96"/>
</svg>
