<svg width="25" height="26" viewBox="0 0 25 26" fill="none" xmlns="http://www.w3.org/2000/svg">
<path d="M18.75 1.54175H6.25C5.4212 1.54175 4.62634 1.87099 4.04029 2.45704C3.45424 3.04309 3.125 3.83795 3.125 4.66675V23.4167C3.12504 23.6227 3.18616 23.8241 3.30062 23.9953C3.41509 24.1666 3.57776 24.3001 3.76807 24.3789C3.95838 24.4577 4.16779 24.4784 4.36982 24.4382C4.57186 24.398 4.75745 24.2988 4.90312 24.1532L7.13021 21.9272L8.50833 23.9938C8.59305 24.1229 8.70541 24.2316 8.83728 24.312C8.96916 24.3923 9.11725 24.4423 9.27083 24.4584C9.42433 24.4747 9.57952 24.4562 9.72487 24.4043C9.87023 24.3523 10.002 24.2683 10.1104 24.1584L12.5 21.7647L14.8885 24.1532C14.9976 24.2621 15.1294 24.3455 15.2745 24.3973C15.4196 24.4491 15.5745 24.4681 15.7278 24.4528C15.8812 24.4376 16.0292 24.3885 16.1613 24.3091C16.2934 24.2298 16.4062 24.1221 16.4917 23.9938L17.8698 21.9272L20.0969 24.1532C20.2426 24.2988 20.4281 24.398 20.6302 24.4382C20.8322 24.4784 21.0416 24.4577 21.2319 24.3789C21.4222 24.3001 21.5849 24.1666 21.6994 23.9953C21.8138 23.8241 21.875 23.6227 21.875 23.4167V4.66675C21.875 3.83795 21.5458 3.04309 20.9597 2.45704C20.3737 1.87099 19.5788 1.54175 18.75 1.54175ZM19.7917 20.9022L18.4448 19.5553C18.3365 19.4453 18.2047 19.3612 18.0593 19.3092C17.9139 19.2573 17.7587 19.2388 17.6052 19.2553C17.452 19.2705 17.304 19.3195 17.172 19.3987C17.04 19.478 16.9271 19.5855 16.8417 19.7136L15.4635 21.7813L13.2365 19.5553C13.0411 19.36 12.7762 19.2503 12.5 19.2503C12.2238 19.2503 11.9589 19.36 11.7635 19.5553L9.53646 21.7813L8.15833 19.7136C8.07281 19.5854 7.95991 19.4778 7.82778 19.3986C7.69565 19.3193 7.54758 19.2703 7.39423 19.2552C7.24089 19.24 7.08609 19.2591 6.94101 19.311C6.79592 19.3629 6.66416 19.4463 6.55521 19.5553L5.20833 20.9022V4.66675C5.20833 4.39048 5.31808 4.12553 5.51343 3.93018C5.70878 3.73483 5.97373 3.62508 6.25 3.62508H18.75C19.0263 3.62508 19.2912 3.73483 19.4866 3.93018C19.6819 4.12553 19.7917 4.39048 19.7917 4.66675V20.9022ZM13.5417 11.9584C13.5417 12.2347 13.4319 12.4996 13.2366 12.695C13.0412 12.8903 12.7763 13.0001 12.5 13.0001H8.33333C8.05707 13.0001 7.79211 12.8903 7.59676 12.695C7.40141 12.4996 7.29167 12.2347 7.29167 11.9584C7.29167 11.6821 7.40141 11.4172 7.59676 11.2218C7.79211 11.0265 8.05707 10.9167 8.33333 10.9167H12.5C12.7763 10.9167 13.0412 11.0265 13.2366 11.2218C13.4319 11.4172 13.5417 11.6821 13.5417 11.9584ZM13.5417 16.1251C13.5417 16.4013 13.4319 16.6663 13.2366 16.8617C13.0412 17.057 12.7763 17.1667 12.5 17.1667H8.33333C8.05707 17.1667 7.79211 17.057 7.59676 16.8617C7.40141 16.6663 7.29167 16.4013 7.29167 16.1251C7.29167 15.8488 7.40141 15.5839 7.59676 15.3885C7.79211 15.1932 8.05707 15.0834 8.33333 15.0834H12.5C12.7763 15.0834 13.0412 15.1932 13.2366 15.3885C13.4319 15.5839 13.5417 15.8488 13.5417 16.1251ZM17.7083 11.9584C17.7083 12.2347 17.5986 12.4996 17.4032 12.695C17.2079 12.8903 16.9429 13.0001 16.6667 13.0001H15.625C15.3487 13.0001 15.0838 12.8903 14.8884 12.695C14.6931 12.4996 14.5833 12.2347 14.5833 11.9584C14.5833 11.6821 14.6931 11.4172 14.8884 11.2218C15.0838 11.0265 15.3487 10.9167 15.625 10.9167H16.6667C16.9429 10.9167 17.2079 11.0265 17.4032 11.2218C17.5986 11.4172 17.7083 11.6821 17.7083 11.9584ZM17.7083 16.1251C17.7083 16.4013 17.5986 16.6663 17.4032 16.8617C17.2079 17.057 16.9429 17.1667 16.6667 17.1667H15.625C15.3487 17.1667 15.0838 17.057 14.8884 16.8617C14.6931 16.6663 14.5833 16.4013 14.5833 16.1251C14.5833 15.8488 14.6931 15.5839 14.8884 15.3885C15.0838 15.1932 15.3487 15.0834 15.625 15.0834H16.6667C16.9429 15.0834 17.2079 15.1932 17.4032 15.3885C17.5986 15.5839 17.7083 15.8488 17.7083 16.1251ZM17.7083 6.75008C17.7083 7.02635 17.5986 7.2913 17.4032 7.48665C17.2079 7.682 16.9429 7.79175 16.6667 7.79175H8.33333C8.05707 7.79175 7.79211 7.682 7.59676 7.48665C7.40141 7.2913 7.29167 7.02635 7.29167 6.75008C7.29167 6.47381 7.40141 6.20886 7.59676 6.01351C7.79211 5.81816 8.05707 5.70841 8.33333 5.70841H16.6667C16.9429 5.70841 17.2079 5.81816 17.4032 6.01351C17.5986 6.20886 17.7083 6.47381 17.7083 6.75008Z" fill="#6D9AC7"/>
</svg>
