<svg width="45" height="45" viewBox="0 0 45 45" fill="none" xmlns="http://www.w3.org/2000/svg">
<rect x="1" y="1" width="43" height="43" rx="21.5" stroke="#2B2F33" stroke-width="2"/>
<path d="M19.4141 24.8398H22.918C22.8477 25.9883 22.5312 27.0078 21.9688 27.8984C21.4141 28.7891 20.6367 29.4844 19.6367 29.9844C18.6445 30.4844 17.4492 30.7344 16.0508 30.7344C14.957 30.7344 13.9766 30.5469 13.1094 30.1719C12.2422 29.7891 11.5 29.2422 10.8828 28.5312C10.2734 27.8203 9.80859 26.9609 9.48828 25.9531C9.16797 24.9453 9.00781 23.8164 9.00781 22.5664V21.3828C9.00781 20.1328 9.17188 19.0039 9.5 17.9961C9.83594 16.9805 10.3125 16.1172 10.9297 15.4062C11.5547 14.6953 12.3008 14.1484 13.168 13.7656C14.0352 13.3828 15.0039 13.1914 16.0742 13.1914C17.4961 13.1914 18.6953 13.4492 19.6719 13.9648C20.6562 14.4805 21.418 15.1914 21.957 16.0977C22.5039 17.0039 22.832 18.0352 22.9414 19.1914H19.4258C19.3867 18.5039 19.25 17.9219 19.0156 17.4453C18.7812 16.9609 18.4258 16.5977 17.9492 16.3555C17.4805 16.1055 16.8555 15.9805 16.0742 15.9805C15.4883 15.9805 14.9766 16.0898 14.5391 16.3086C14.1016 16.5273 13.7344 16.8594 13.4375 17.3047C13.1406 17.75 12.918 18.3125 12.7695 18.9922C12.6289 19.6641 12.5586 20.4531 12.5586 21.3594V22.5664C12.5586 23.4492 12.625 24.2266 12.7578 24.8984C12.8906 25.5625 13.0938 26.125 13.3672 26.5859C13.6484 27.0391 14.0078 27.3828 14.4453 27.6172C14.8906 27.8438 15.4258 27.957 16.0508 27.957C16.7852 27.957 17.3906 27.8398 17.8672 27.6055C18.3438 27.3711 18.707 27.0234 18.957 26.5625C19.2148 26.1016 19.3672 25.5273 19.4141 24.8398ZM28.7422 13.4375V30.5H25.2266V13.4375H28.7422ZM35.5391 20.7266V23.4688H27.7812V20.7266H35.5391ZM36.3594 13.4375V16.1914H27.7812V13.4375H36.3594Z" fill="#2B2F33"/>
</svg>
