<svg width="25" height="26" viewBox="0 0 25 26" fill="none" xmlns="http://www.w3.org/2000/svg">
<g clip-path="url(#clip0_1037_718)">
<path d="M13.25 11.75C12.75 11.625 12.25 11.375 11.875 11C11.5 10.875 11.375 10.5 11.375 10.25C11.375 10 11.5 9.625 11.75 9.5C12.125 9.25 12.5 9 12.875 9.125C13.625 9.125 14.25 9.5 14.625 10L15.75 8.5C15.375 8.125 15 7.875 14.625 7.625C14.25 7.375 13.75 7.25 13.25 7.25V5.5H11.75V7.25C11.125 7.375 10.5 7.75 10 8.25C9.5 8.875 9.125 9.625 9.25 10.375C9.25 11.125 9.5 11.875 10 12.375C10.625 13 11.5 13.375 12.25 13.75C12.625 13.875 13.125 14.125 13.5 14.375C13.75 14.625 13.875 15 13.875 15.375C13.875 15.75 13.75 16.125 13.5 16.5C13.125 16.875 12.625 17 12.25 17C11.75 17 11.125 16.875 10.75 16.5C10.375 16.25 10 15.875 9.75 15.5L8.5 16.875C8.875 17.375 9.25 17.75 9.75 18.125C10.375 18.5 11.125 18.875 11.875 18.875V20.5H13.25V18.625C14 18.5 14.625 18.125 15.125 17.625C15.75 17 16.125 16 16.125 15.125C16.125 14.375 15.875 13.5 15.25 13C14.625 12.375 14 12 13.25 11.75ZM12.5 3C7 3 2.5 7.5 2.5 13C2.5 18.5 7 23 12.5 23C18 23 22.5 18.5 22.5 13C22.5 7.5 18 3 12.5 3ZM12.5 21.625C7.75 21.625 3.875 17.75 3.875 13C3.875 8.25 7.75 4.375 12.5 4.375C17.25 4.375 21.125 8.25 21.125 13C21.125 17.75 17.25 21.625 12.5 21.625Z" fill="#6D9AC7"/>
</g>
<defs>
<clipPath id="clip0_1037_718">
<rect width="25" height="25" fill="white" transform="translate(0 0.5)"/>
</clipPath>
</defs>
</svg>
