<svg width="25" height="26" viewBox="0 0 25 26" fill="none" xmlns="http://www.w3.org/2000/svg">
<rect x="1" y="1.5" width="23" height="23" rx="11.5" stroke="#E00004" stroke-width="2"/>
<path fill-rule="evenodd" clip-rule="evenodd" d="M12.4999 5.5C12.7209 5.5 12.9329 5.5878 13.0892 5.74408L18.9225 11.5774C19.2479 11.9028 19.2479 12.4305 18.9225 12.7559C18.5971 13.0813 18.0694 13.0813 17.744 12.7559L13.3333 8.34517V19.6667C13.3333 20.1269 12.9602 20.5 12.4999 20.5C12.0397 20.5 11.6666 20.1269 11.6666 19.6667V8.34517L7.25584 12.7559C6.9304 13.0813 6.40277 13.0813 6.07733 12.7559C5.75189 12.4305 5.75189 11.9028 6.07733 11.5774L11.9107 5.74408C12.0669 5.5878 12.2789 5.5 12.4999 5.5Z" fill="#E00004"/>
</svg>
