<svg width="50" height="46" viewBox="0 0 50 46" fill="none" xmlns="http://www.w3.org/2000/svg">
<path d="M49.3256 37.7584L29.372 3.19619C28.473 1.63916 26.7977 0.671875 24.9996 0.671875C23.2015 0.671875 21.5277 1.63916 20.6293 3.19619L0.674268 37.7568C-0.224756 39.3139 -0.224756 41.2477 0.674268 42.8047C1.57329 44.3617 3.2479 45.3283 5.04517 45.3283H44.9547C46.7521 45.3283 48.4282 44.3618 49.3257 42.8047C50.2248 41.2477 50.2248 39.3139 49.3256 37.7584ZM25.0003 39.6443C23.275 39.6443 21.8741 38.2449 21.8741 36.5189C21.8741 34.7936 23.275 33.3942 25.0003 33.3942C26.7256 33.3942 28.1251 34.7936 28.1251 36.5189C28.1251 38.245 26.7256 39.6443 25.0003 39.6443ZM26.9257 29.6418C26.9257 30.7053 26.063 31.5665 25.0003 31.5665C23.9361 31.5665 23.0749 30.7054 23.0749 29.6418L21.8741 15.5086C21.8741 13.7824 23.275 12.3831 25.0003 12.3831C26.7256 12.3831 28.1251 13.7825 28.1251 15.5086L26.9257 29.6418Z" fill="#F1F1F1"/>
</svg>
