<svg width="26" height="25" viewBox="0 0 26 25" fill="none" xmlns="http://www.w3.org/2000/svg">
<g clip-path="url(#clip0_65_268)">
<path d="M24.3958 0.625C23.875 0.208333 23.3541 0 22.7291 0H6.06248C5.22915 0 4.49998 0.729167 4.49998 1.5625V19.7917H1.89581C1.06248 19.7917 0.333313 20.5208 0.333313 21.3542V22.3958C0.333313 23.8542 1.47915 25 2.93748 25H18.5625C18.7708 25 18.875 25 18.9791 25C20.2291 24.7917 21.1666 23.6458 21.1666 22.2917V9.375H23.7708C24.6041 9.375 25.3333 8.64583 25.3333 7.8125V2.60417C25.3333 1.875 25.0208 1.14583 24.3958 0.625ZM2.93748 23.9583C2.10415 23.9583 1.37498 23.2292 1.37498 22.3958V21.3542C1.37498 21.0417 1.58331 20.8333 1.89581 20.8333H15.4375C15.75 20.8333 15.9583 21.0417 15.9583 21.3542V22.3958C15.9583 22.9167 16.1666 23.5417 16.4791 23.9583H2.93748ZM20.125 2.70833V22.2917C20.125 23.125 19.6041 23.8542 18.875 23.9583C18.7708 23.9583 18.6666 23.9583 18.5625 23.9583C18.25 23.9583 17.8333 23.8542 17.625 23.5417C17.3125 23.2292 17.1041 22.8125 17.1041 22.3958V21.3542C17.1041 20.5208 16.375 19.7917 15.5416 19.7917H5.54165V1.5625C5.54165 1.25 5.74998 1.04167 6.06248 1.04167H20.6458C20.3333 1.45833 20.125 2.08333 20.125 2.70833ZM24.2916 7.8125C24.2916 8.125 24.0833 8.33333 23.7708 8.33333H21.1666V2.70833C21.1666 1.875 21.6875 1.14583 22.4166 1.04167C22.9375 0.9375 23.3541 1.04167 23.6666 1.35417C24.0833 1.66667 24.2916 2.1875 24.2916 2.60417V7.8125Z" fill="#2B2F33"/>
<path d="M17.5208 14.5833C17.2083 14.5833 17 14.375 17 14.0625C17 13.75 17.2083 13.5417 17.5208 13.5417H18.5625C18.875 13.5417 19.0833 13.3333 19.0833 13.0208C19.0833 12.7083 18.875 12.5 18.5625 12.5H18.0416V11.9792C18.0416 11.6667 17.8333 11.4583 17.5208 11.4583C17.2083 11.4583 17 11.6667 17 11.9792V12.6042C16.375 12.8125 15.9583 13.4375 15.9583 14.0625C15.9583 14.8958 16.6875 15.625 17.5208 15.625C17.8333 15.625 18.0416 15.8333 18.0416 16.1458C18.0416 16.4583 17.8333 16.6667 17.5208 16.6667H16.4791C16.1666 16.6667 15.9583 16.875 15.9583 17.1875C15.9583 17.5 16.1666 17.7083 16.4791 17.7083H17V18.2292C17 18.5417 17.2083 18.75 17.5208 18.75C17.8333 18.75 18.0416 18.5417 18.0416 18.2292V17.6042C18.6666 17.3958 19.0833 16.7708 19.0833 16.1458C19.0833 15.3125 18.3541 14.5833 17.5208 14.5833Z" fill="#2B2F33"/>
<path d="M8.14581 5.20834C7.83331 5.20834 7.62498 5 7.62498 4.6875C7.62498 4.375 7.83331 4.16667 8.14581 4.16667H9.18748C9.49998 4.16667 9.70831 3.95834 9.70831 3.64584C9.70831 3.33334 9.49998 3.125 9.18748 3.125H8.66665V2.60417C8.66665 2.29167 8.45831 2.08334 8.14581 2.08334C7.83331 2.08334 7.62498 2.29167 7.62498 2.60417V3.22917C6.99998 3.4375 6.58331 3.95834 6.58331 4.6875C6.58331 5.52084 7.31248 6.25 8.14581 6.25C8.45831 6.25 8.66665 6.45834 8.66665 6.77084C8.66665 7.08334 8.45831 7.29167 8.14581 7.29167H7.10415C6.79165 7.29167 6.58331 7.5 6.58331 7.8125C6.58331 8.125 6.79165 8.33334 7.10415 8.33334H7.62498V8.85417C7.62498 9.16667 7.83331 9.375 8.14581 9.375C8.45831 9.375 8.66665 9.16667 8.66665 8.85417V8.22917C9.29165 8.02084 9.70831 7.39584 9.70831 6.77084C9.70831 5.9375 8.97915 5.20834 8.14581 5.20834Z" fill="#2B2F33"/>
<path d="M18.5625 3.125H11.2708C10.9583 3.125 10.75 2.91667 10.75 2.60417C10.75 2.29167 10.9583 2.08334 11.2708 2.08334H18.5625C18.875 2.08334 19.0833 2.29167 19.0833 2.60417C19.0833 2.91667 18.875 3.125 18.5625 3.125Z" fill="#2B2F33"/>
<path d="M15.4375 5.20833H11.2708C10.9583 5.20833 10.75 5 10.75 4.6875C10.75 4.375 10.9583 4.16666 11.2708 4.16666H15.4375C15.75 4.16666 15.9583 4.375 15.9583 4.6875C15.9583 5 15.75 5.20833 15.4375 5.20833Z" fill="#2B2F33"/>
<path d="M15.4375 7.29167H11.2708C10.9583 7.29167 10.75 7.08333 10.75 6.77083C10.75 6.45833 10.9583 6.25 11.2708 6.25H15.4375C15.75 6.25 15.9583 6.45833 15.9583 6.77083C15.9583 7.08333 15.75 7.29167 15.4375 7.29167Z" fill="#2B2F33"/>
<path d="M18.5625 9.375H11.2708C10.9583 9.375 10.75 9.16667 10.75 8.85417C10.75 8.54167 10.9583 8.33334 11.2708 8.33334H18.5625C18.875 8.33334 19.0833 8.54167 19.0833 8.85417C19.0833 9.16667 18.875 9.375 18.5625 9.375Z" fill="#2B2F33"/>
<path d="M14.3958 12.5H7.10415C6.79165 12.5 6.58331 12.2917 6.58331 11.9792C6.58331 11.6667 6.79165 11.4583 7.10415 11.4583H14.3958C14.7083 11.4583 14.9166 11.6667 14.9166 11.9792C14.9166 12.2917 14.7083 12.5 14.3958 12.5Z" fill="#2B2F33"/>
<path d="M14.3958 14.5833H10.2291C9.91665 14.5833 9.70831 14.375 9.70831 14.0625C9.70831 13.75 9.91665 13.5417 10.2291 13.5417H14.3958C14.7083 13.5417 14.9166 13.75 14.9166 14.0625C14.9166 14.375 14.7083 14.5833 14.3958 14.5833Z" fill="#2B2F33"/>
<path d="M14.3958 16.6667H10.2291C9.91665 16.6667 9.70831 16.4583 9.70831 16.1458C9.70831 15.8333 9.91665 15.625 10.2291 15.625H14.3958C14.7083 15.625 14.9166 15.8333 14.9166 16.1458C14.9166 16.4583 14.7083 16.6667 14.3958 16.6667Z" fill="#2B2F33"/>
<path d="M14.3958 18.75H7.10415C6.79165 18.75 6.58331 18.5417 6.58331 18.2292C6.58331 17.9167 6.79165 17.7083 7.10415 17.7083H14.3958C14.7083 17.7083 14.9166 17.9167 14.9166 18.2292C14.9166 18.5417 14.7083 18.75 14.3958 18.75Z" fill="#2B2F33"/>
</g>
<defs>
<clipPath id="clip0_65_268">
<rect width="25" height="25" fill="white" transform="translate(0.333313)"/>
</clipPath>
</defs>
</svg>
