<svg width="25" height="26" viewBox="0 0 25 26" fill="none" xmlns="http://www.w3.org/2000/svg">
<path fill-rule="evenodd" clip-rule="evenodd" d="M7.03117 8.83325C7.03117 5.81295 9.47962 3.3645 12.4999 3.3645C15.0471 3.3645 17.1893 5.10661 17.7964 7.46548C17.904 7.88334 18.3299 8.13489 18.7477 8.02735C19.1656 7.91979 19.4171 7.49388 19.3096 7.07602C18.5291 4.04356 15.7773 1.802 12.4999 1.802C8.61667 1.802 5.46867 4.95 5.46867 8.83325V10.9735C4.30747 11.0602 3.55128 11.2791 2.99854 11.8319C2.08325 12.7472 2.08325 14.2203 2.08325 17.1666C2.08325 20.1128 2.08325 21.586 2.99854 22.5013C3.91384 23.4166 5.38697 23.4166 8.33325 23.4166H16.6666C19.6128 23.4166 21.086 23.4166 22.0013 22.5013C22.9166 21.586 22.9166 20.1128 22.9166 17.1666C22.9166 14.2203 22.9166 12.7472 22.0013 11.8319C21.086 10.9166 19.6128 10.9166 16.6666 10.9166H8.33325C7.86293 10.9166 7.43014 10.9166 7.03117 10.9203V8.83325ZM8.33325 18.2083C8.90854 18.2083 9.37492 17.7419 9.37492 17.1666C9.37492 16.5913 8.90854 16.1249 8.33325 16.1249C7.75796 16.1249 7.29158 16.5913 7.29158 17.1666C7.29158 17.7419 7.75796 18.2083 8.33325 18.2083ZM12.4999 18.2083C13.0752 18.2083 13.5416 17.7419 13.5416 17.1666C13.5416 16.5913 13.0752 16.1249 12.4999 16.1249C11.9246 16.1249 11.4583 16.5913 11.4583 17.1666C11.4583 17.7419 11.9246 18.2083 12.4999 18.2083ZM17.7083 17.1666C17.7083 17.7419 17.2419 18.2083 16.6666 18.2083C16.0913 18.2083 15.6249 17.7419 15.6249 17.1666C15.6249 16.5913 16.0913 16.1249 16.6666 16.1249C17.2419 16.1249 17.7083 16.5913 17.7083 17.1666Z" fill="#FAFAFA"/>
</svg>
