<svg width="130" height="130" viewBox="0 0 130 130" fill="none" xmlns="http://www.w3.org/2000/svg">
<g filter="url(#filter0_d_488_1077)">
<rect x="5" y="3" width="120" height="120" rx="60" fill="#FAFAFA" shape-rendering="crispEdges"/>
<path d="M83.3333 34.6667H83.9999C89.9709 34.6667 92.9566 34.6667 94.8116 36.5217C96.6666 38.3767 96.6666 41.3623 96.6666 47.3334V48.0001" stroke="#222222" stroke-width="2" stroke-linecap="round"/>
<path d="M83.3333 91.3333H83.9999C89.9709 91.3333 92.9566 91.3333 94.8116 89.4783C96.6666 87.6233 96.6666 84.6377 96.6666 78.6667V78" stroke="#222222" stroke-width="2" stroke-linecap="round"/>
<path d="M46.6666 34.6667H45.9999C40.0288 34.6667 37.0432 34.6667 35.1883 36.5217C33.3333 38.3767 33.3333 41.3623 33.3333 47.3334V48.0001" stroke="#222222" stroke-width="2" stroke-linecap="round"/>
<path d="M46.6666 91.3333H45.9999C40.0288 91.3333 37.0432 91.3333 35.1883 89.4783C33.3333 87.6233 33.3333 84.6377 33.3333 78.6667V78" stroke="#222222" stroke-width="2" stroke-linecap="round"/>
<path d="M49.0496 75.6157C50.6254 73.3413 52.917 71.418 55.7227 70.068C58.5284 68.7183 61.7291 68 65.0001 68C68.2711 68 71.4718 68.7183 74.2774 70.068C77.0831 71.418 79.3748 73.3413 80.9508 75.6157" stroke="#222222" stroke-width="2" stroke-linecap="round"/>
<path d="M65.0001 61.3334C69.6025 61.3334 73.3334 57.6025 73.3334 53.0001C73.3334 48.3977 69.6025 44.6667 65.0001 44.6667C60.3977 44.6667 56.6667 48.3977 56.6667 53.0001C56.6667 57.6025 60.3977 61.3334 65.0001 61.3334Z" stroke="#222222" stroke-width="2" stroke-linecap="round"/>
</g>
<defs>
<filter id="filter0_d_488_1077" x="0" y="0" width="130" height="130" filterUnits="userSpaceOnUse" color-interpolation-filters="sRGB">
<feFlood flood-opacity="0" result="BackgroundImageFix"/>
<feColorMatrix in="SourceAlpha" type="matrix" values="0 0 0 0 0 0 0 0 0 0 0 0 0 0 0 0 0 0 127 0" result="hardAlpha"/>
<feOffset dy="2"/>
<feGaussianBlur stdDeviation="2.5"/>
<feComposite in2="hardAlpha" operator="out"/>
<feColorMatrix type="matrix" values="0 0 0 0 0 0 0 0 0 0 0 0 0 0 0 0 0 0 0.25 0"/>
<feBlend mode="normal" in2="BackgroundImageFix" result="effect1_dropShadow_488_1077"/>
<feBlend mode="normal" in="SourceGraphic" in2="effect1_dropShadow_488_1077" result="shape"/>
</filter>
</defs>
</svg>
