<svg width="25" height="25" viewBox="0 0 25 25" fill="none" xmlns="http://www.w3.org/2000/svg">
<path d="M12.5001 12.5C11.882 12.5 11.2778 12.6833 10.7639 13.0267C10.25 13.37 9.84948 13.8581 9.61296 14.4291C9.37643 15.0001 9.31455 15.6285 9.43513 16.2347C9.55571 16.8408 9.85333 17.3977 10.2904 17.8347C10.7274 18.2717 11.2842 18.5694 11.8904 18.6899C12.4966 18.8105 13.1249 18.7486 13.696 18.5121C14.267 18.2756 14.755 17.8751 15.0984 17.3612C15.4418 16.8472 15.6251 16.2431 15.6251 15.625C15.6251 14.7962 15.2958 14.0013 14.7098 13.4153C14.1237 12.8292 13.3289 12.5 12.5001 12.5ZM12.5001 16.6667C12.2941 16.6667 12.0927 16.6056 11.9214 16.4911C11.7501 16.3766 11.6165 16.214 11.5377 16.0236C11.4589 15.8333 11.4382 15.6238 11.4784 15.4218C11.5186 15.2197 11.6178 15.0341 11.7635 14.8884C11.9092 14.7427 12.0948 14.6435 12.2969 14.6033C12.4989 14.5632 12.7084 14.5838 12.8987 14.6626C13.089 14.7415 13.2517 14.875 13.3662 15.0463C13.4807 15.2176 13.5417 15.419 13.5417 15.625C13.5417 15.9013 13.432 16.1662 13.2367 16.3616C13.0413 16.5569 12.7763 16.6667 12.5001 16.6667ZM11.7605 10.1146C11.8596 10.2094 11.9764 10.2838 12.1042 10.3333C12.2289 10.3884 12.3638 10.4169 12.5001 10.4169C12.6364 10.4169 12.7712 10.3884 12.8959 10.3333C13.0238 10.2838 13.1406 10.2094 13.2397 10.1146L15.6251 7.77083C15.8268 7.56915 15.9401 7.29562 15.9401 7.01041C15.9401 6.7252 15.8268 6.45167 15.6251 6.24999C15.4234 6.04832 15.1499 5.93502 14.8647 5.93502C14.5795 5.93502 14.3059 6.04832 14.1042 6.24999L13.5417 6.86458V3.12499C13.5417 2.84873 13.432 2.58378 13.2367 2.38843C13.0413 2.19307 12.7763 2.08333 12.5001 2.08333C12.2238 2.08333 11.9589 2.19307 11.7635 2.38843C11.5682 2.58378 11.4584 2.84873 11.4584 3.12499V6.86458L10.8959 6.24999C10.6942 6.04832 10.4207 5.93502 10.1355 5.93502C9.85029 5.93502 9.57676 6.04832 9.37508 6.24999C9.17341 6.45167 9.06011 6.7252 9.06011 7.01041C9.06011 7.29562 9.17341 7.56915 9.37508 7.77083L11.7605 10.1146ZM19.7917 15.625C19.7917 15.419 19.7307 15.2176 19.6162 15.0463C19.5017 14.875 19.339 14.7415 19.1487 14.6626C18.9584 14.5838 18.7489 14.5632 18.5469 14.6033C18.3448 14.6435 18.1592 14.7427 18.0135 14.8884C17.8678 15.0341 17.7686 15.2197 17.7284 15.4218C17.6882 15.6238 17.7089 15.8333 17.7877 16.0236C17.8665 16.214 18.0001 16.3766 18.1714 16.4911C18.3427 16.6056 18.5441 16.6667 18.7501 16.6667C19.0263 16.6667 19.2913 16.5569 19.4867 16.3616C19.682 16.1662 19.7917 15.9013 19.7917 15.625ZM20.8334 8.33333H17.7084C17.4321 8.33333 17.1672 8.44307 16.9718 8.63843C16.7765 8.83378 16.6667 9.09873 16.6667 9.37499C16.6667 9.65126 16.7765 9.91621 16.9718 10.1116C17.1672 10.3069 17.4321 10.4167 17.7084 10.4167H20.8334C21.1097 10.4167 21.3746 10.5264 21.57 10.7218C21.7653 10.9171 21.8751 11.1821 21.8751 11.4583V19.7917C21.8751 20.0679 21.7653 20.3329 21.57 20.5282C21.3746 20.7236 21.1097 20.8333 20.8334 20.8333H4.16675C3.89048 20.8333 3.62553 20.7236 3.43018 20.5282C3.23483 20.3329 3.12508 20.0679 3.12508 19.7917V11.4583C3.12508 11.1821 3.23483 10.9171 3.43018 10.7218C3.62553 10.5264 3.89048 10.4167 4.16675 10.4167H7.29175C7.56802 10.4167 7.83297 10.3069 8.02832 10.1116C8.22367 9.91621 8.33341 9.65126 8.33341 9.37499C8.33341 9.09873 8.22367 8.83378 8.02832 8.63843C7.83297 8.44307 7.56802 8.33333 7.29175 8.33333H4.16675C3.33795 8.33333 2.54309 8.66257 1.95704 9.24862C1.37099 9.83467 1.04175 10.6295 1.04175 11.4583V19.7917C1.04175 20.6205 1.37099 21.4153 1.95704 22.0014C2.54309 22.5874 3.33795 22.9167 4.16675 22.9167H20.8334C21.6622 22.9167 22.4571 22.5874 23.0431 22.0014C23.6292 21.4153 23.9584 20.6205 23.9584 19.7917V11.4583C23.9584 10.6295 23.6292 9.83467 23.0431 9.24862C22.4571 8.66257 21.6622 8.33333 20.8334 8.33333ZM5.20841 15.625C5.20841 15.831 5.26951 16.0324 5.38397 16.2037C5.49843 16.375 5.66111 16.5085 5.85145 16.5874C6.04179 16.6662 6.25124 16.6868 6.4533 16.6466C6.65536 16.6065 6.84097 16.5072 6.98665 16.3616C7.13233 16.2159 7.23154 16.0303 7.27173 15.8282C7.31193 15.6262 7.2913 15.4167 7.21246 15.2264C7.13361 15.036 7.0001 14.8733 6.8288 14.7589C6.6575 14.6444 6.4561 14.5833 6.25008 14.5833C5.97381 14.5833 5.70886 14.6931 5.51351 14.8884C5.31816 15.0838 5.20841 15.3487 5.20841 15.625Z" fill="#2B2F33"/>
</svg>
