<svg width="25" height="25" viewBox="0 0 25 25" fill="none" xmlns="http://www.w3.org/2000/svg">
<path d="M10.8959 6.24997L11.4584 5.63539V9.37497C11.4584 9.65124 11.5682 9.91619 11.7635 10.1115C11.9589 10.3069 12.2238 10.4166 12.5001 10.4166C12.7763 10.4166 13.0413 10.3069 13.2366 10.1115C13.432 9.91619 13.5417 9.65124 13.5417 9.37497V5.63539L14.1042 6.20831C14.1988 6.3151 14.3143 6.40134 14.4435 6.46167C14.5728 6.52201 14.713 6.55516 14.8556 6.55906C14.9982 6.56297 15.1401 6.53755 15.2724 6.48438C15.4048 6.43121 15.5248 6.35143 15.6251 6.24997C15.7227 6.15314 15.8002 6.03793 15.8531 5.91099C15.906 5.78405 15.9332 5.6479 15.9332 5.51039C15.9332 5.37288 15.906 5.23673 15.8531 5.10979C15.8002 4.98285 15.7227 4.86764 15.6251 4.77081L13.2397 2.38539C13.1406 2.29056 13.0238 2.21622 12.8959 2.16664C12.6423 2.06245 12.3579 2.06245 12.1042 2.16664C11.9764 2.21622 11.8596 2.29056 11.7605 2.38539L9.37508 4.72914C9.1734 4.93081 9.06011 5.20434 9.06011 5.48956C9.06011 5.77477 9.1734 6.0483 9.37508 6.24997C9.57676 6.45165 9.85028 6.56495 10.1355 6.56495C10.4207 6.56495 10.6942 6.45165 10.8959 6.24997ZM12.5001 12.5C11.882 12.5 11.2778 12.6832 10.7639 13.0266C10.25 13.37 9.84948 13.8581 9.61296 14.4291C9.37643 15.0001 9.31455 15.6284 9.43513 16.2346C9.55571 16.8408 9.85333 17.3976 10.2904 17.8347C10.7274 18.2717 11.2842 18.5693 11.8904 18.6899C12.4966 18.8105 13.1249 18.7486 13.696 18.5121C14.267 18.2756 14.755 17.875 15.0984 17.3611C15.4418 16.8472 15.6251 16.243 15.6251 15.625C15.6251 14.7962 15.2958 14.0013 14.7098 13.4153C14.1237 12.8292 13.3289 12.5 12.5001 12.5ZM12.5001 16.6666C12.2941 16.6666 12.0927 16.6055 11.9214 16.4911C11.7501 16.3766 11.6165 16.2139 11.5377 16.0236C11.4589 15.8333 11.4382 15.6238 11.4784 15.4218C11.5186 15.2197 11.6178 15.0341 11.7635 14.8884C11.9092 14.7427 12.0948 14.6435 12.2969 14.6033C12.4989 14.5631 12.7084 14.5838 12.8987 14.6626C13.089 14.7414 13.2517 14.875 13.3662 15.0463C13.4807 15.2176 13.5417 15.4189 13.5417 15.625C13.5417 15.9012 13.432 16.1662 13.2366 16.3615C13.0413 16.5569 12.7763 16.6666 12.5001 16.6666ZM5.20841 15.625C5.20841 15.831 5.26951 16.0324 5.38397 16.2037C5.49843 16.375 5.66111 16.5085 5.85145 16.5873C6.04179 16.6662 6.25124 16.6868 6.4533 16.6466C6.65536 16.6064 6.84097 16.5072 6.98665 16.3615C7.13233 16.2159 7.23154 16.0303 7.27173 15.8282C7.31192 15.6261 7.2913 15.4167 7.21246 15.2263C7.13361 15.036 7.0001 14.8733 6.8288 14.7589C6.6575 14.6444 6.4561 14.5833 6.25008 14.5833C5.97381 14.5833 5.70886 14.6931 5.51351 14.8884C5.31816 15.0838 5.20841 15.3487 5.20841 15.625ZM19.7917 15.625C19.7917 15.4189 19.7307 15.2176 19.6162 15.0463C19.5017 14.875 19.339 14.7414 19.1487 14.6626C18.9584 14.5838 18.7489 14.5631 18.5469 14.6033C18.3448 14.6435 18.1592 14.7427 18.0135 14.8884C17.8678 15.0341 17.7686 15.2197 17.7284 15.4218C17.6882 15.6238 17.7089 15.8333 17.7877 16.0236C17.8665 16.2139 18.0001 16.3766 18.1714 16.4911C18.3427 16.6055 18.5441 16.6666 18.7501 16.6666C19.0263 16.6666 19.2913 16.5569 19.4866 16.3615C19.682 16.1662 19.7917 15.9012 19.7917 15.625ZM20.8334 8.33331H16.6667C16.3905 8.33331 16.1255 8.44305 15.9302 8.6384C15.7348 8.83375 15.6251 9.09871 15.6251 9.37497C15.6251 9.65124 15.7348 9.91619 15.9302 10.1115C16.1255 10.3069 16.3905 10.4166 16.6667 10.4166H20.8334C21.1097 10.4166 21.3746 10.5264 21.57 10.7217C21.7653 10.9171 21.8751 11.182 21.8751 11.4583V19.7916C21.8751 20.0679 21.7653 20.3329 21.57 20.5282C21.3746 20.7236 21.1097 20.8333 20.8334 20.8333H4.16675C3.89048 20.8333 3.62553 20.7236 3.43018 20.5282C3.23483 20.3329 3.12508 20.0679 3.12508 19.7916V11.4583C3.12508 11.182 3.23483 10.9171 3.43018 10.7217C3.62553 10.5264 3.89048 10.4166 4.16675 10.4166H8.33341C8.60968 10.4166 8.87463 10.3069 9.06998 10.1115C9.26533 9.91619 9.37508 9.65124 9.37508 9.37497C9.37508 9.09871 9.26533 8.83375 9.06998 8.6384C8.87463 8.44305 8.60968 8.33331 8.33341 8.33331H4.16675C3.33795 8.33331 2.54309 8.66255 1.95704 9.2486C1.37099 9.83465 1.04175 10.6295 1.04175 11.4583V19.7916C1.04175 20.6204 1.37099 21.4153 1.95704 22.0013C2.54309 22.5874 3.33795 22.9166 4.16675 22.9166H20.8334C21.6622 22.9166 22.4571 22.5874 23.0431 22.0013C23.6292 21.4153 23.9584 20.6204 23.9584 19.7916V11.4583C23.9584 10.6295 23.6292 9.83465 23.0431 9.2486C22.4571 8.66255 21.6622 8.33331 20.8334 8.33331Z" fill="#2B2F33"/>
</svg>
