<svg width="150" height="140" viewBox="0 0 150 140" fill="none" xmlns="http://www.w3.org/2000/svg">
<path d="M21.9662 129.183C51.2566 143.142 98.7434 143.146 128.034 129.183C157.324 115.22 157.32 92.5906 128.034 78.6319C98.7477 64.6732 51.2566 64.6732 21.9662 78.6319C-7.32419 92.5906 -7.31994 115.225 21.9662 129.183Z" fill="#F5F5F5"/>
<path d="M127.932 118.867C133.326 118.867 137.699 116.784 137.699 114.213C137.699 111.643 133.326 109.559 127.932 109.559C122.537 109.559 118.164 111.643 118.164 114.213C118.164 116.784 122.537 118.867 127.932 118.867Z" fill="#EBEBEB"/>
<path d="M19.7432 114.881L23.1988 112.887C25.1282 111.313 26.5968 109.247 27.4494 106.907C28.5163 103.965 28.3675 101.73 27.6024 100.608C26.663 99.2261 24.2275 99.4684 24.1297 102.376C23.9257 108.105 22.2552 112.08 19.7432 114.881Z" fill="#1F8FFF"/>
<path opacity="0.2" d="M19.7432 114.881L23.1988 112.887C25.1282 111.313 26.5968 109.247 27.4494 106.907C28.5163 103.965 28.3675 101.73 27.6024 100.608C26.663 99.2261 24.2275 99.4684 24.1297 102.376C23.9257 108.105 22.2552 112.08 19.7432 114.881Z" fill="black"/>
<path d="M19.7429 115.093C19.6979 115.093 19.6542 115.078 19.6182 115.051C19.5821 115.024 19.5556 114.986 19.5424 114.943C19.5291 114.9 19.5299 114.854 19.5445 114.812C19.5592 114.769 19.587 114.732 19.6239 114.706C27.6149 109.181 26.0677 101.475 26.0507 101.398C26.0448 101.37 26.0445 101.341 26.0498 101.313C26.055 101.285 26.0658 101.259 26.0814 101.235C26.0969 101.211 26.1171 101.19 26.1406 101.174C26.1642 101.158 26.1906 101.147 26.2186 101.141C26.2465 101.135 26.2753 101.135 26.3033 101.14C26.3313 101.145 26.358 101.156 26.3819 101.172C26.4058 101.187 26.4264 101.207 26.4425 101.231C26.4586 101.254 26.4699 101.281 26.4757 101.309C26.4757 101.39 28.1079 109.359 19.8789 115.055C19.839 115.082 19.7912 115.096 19.7429 115.093Z" fill="white"/>
<path d="M12.8187 118.881C12.8187 118.881 11.6158 117.903 11.9048 116.577C12.1938 115.251 12.9717 114.299 11.6413 112.59C10.3109 110.881 9.94107 108.603 11.5308 107.37C12.7422 106.414 14.6337 107.766 15.3137 105.245C15.8153 103.4 15.6453 99.3155 17.9958 97.9553C20.3464 96.5951 21.8213 98.6439 21.4515 101.415C21.1285 103.893 20.6694 106.278 21.0264 106.941C21.715 108.216 22.8924 108.042 22.8372 110.371C22.7904 112.539 20.7374 114.333 20.7374 114.333L12.8187 118.881Z" fill="#1F8FFF"/>
<path d="M16.7676 116.802C16.7156 116.801 16.6656 116.782 16.6266 116.748C16.5875 116.714 16.5622 116.666 16.555 116.615C15.9472 111.578 17.4051 102.882 18.5953 100.297C18.6053 100.269 18.6214 100.242 18.6423 100.22C18.6633 100.198 18.6888 100.181 18.717 100.17C18.7452 100.159 18.7755 100.154 18.8058 100.155C18.8361 100.156 18.8658 100.164 18.8928 100.178C18.9182 100.19 18.941 100.206 18.96 100.226C18.9789 100.247 18.9935 100.271 19.003 100.297C19.0126 100.323 19.0167 100.351 19.0153 100.379C19.0139 100.406 19.0069 100.434 18.9948 100.459C17.8174 103.009 16.4105 111.731 16.9928 116.547C16.9988 116.603 16.9825 116.659 16.9475 116.702C16.9124 116.746 16.8615 116.774 16.8058 116.781L16.7676 116.802Z" fill="white"/>
<path d="M16.653 112.879C16.6205 112.88 16.5882 112.873 16.5595 112.857C15.0846 112.139 14.1495 109.576 14.1112 109.457C14.1008 109.43 14.0958 109.402 14.0965 109.374C14.0972 109.345 14.1036 109.317 14.1153 109.292C14.127 109.266 14.1437 109.242 14.1646 109.223C14.1854 109.204 14.21 109.189 14.2367 109.179C14.2634 109.17 14.2918 109.165 14.3202 109.167C14.3485 109.168 14.3763 109.175 14.4019 109.188C14.4274 109.2 14.4502 109.218 14.4689 109.239C14.4877 109.261 14.5019 109.285 14.5108 109.312C14.5108 109.338 15.4246 111.82 16.7466 112.462C16.7899 112.483 16.8249 112.518 16.8456 112.562C16.8664 112.605 16.8718 112.654 16.861 112.701C16.8501 112.748 16.8236 112.79 16.7858 112.82C16.748 112.85 16.7012 112.866 16.653 112.866V112.879Z" fill="white"/>
<path d="M16.6273 114.579C16.5847 114.579 16.5431 114.566 16.5081 114.542C16.4732 114.517 16.4465 114.483 16.4317 114.443C16.4106 114.391 16.4108 114.333 16.4323 114.281C16.4538 114.229 16.4948 114.188 16.5465 114.167C19.0288 113.172 20.576 110.218 20.593 110.184C20.6189 110.134 20.6637 110.096 20.7175 110.079C20.7713 110.062 20.8298 110.066 20.8799 110.092C20.9301 110.118 20.9679 110.163 20.985 110.217C21.0022 110.271 20.9972 110.329 20.9713 110.379C20.9033 110.507 19.3348 113.508 16.7208 114.562C16.6917 114.576 16.6594 114.581 16.6273 114.579Z" fill="white"/>
<path d="M103.393 91.711C103.393 91.711 101.536 88.7016 101.353 85.433C101.17 82.1643 101.889 80.8042 102.875 80.4131C103.861 80.0221 103.938 81.225 104.443 81.9348C104.949 82.6446 105.982 82.2408 106.365 80.0263C106.747 77.8118 108.141 74.0756 111.04 73.3487C114.228 72.5581 112.519 76.2986 111.716 77.7565C110.913 79.2145 110.292 81.2037 110.819 81.7435C111.346 82.2833 112.167 81.2845 112.944 82.2111C113.892 83.329 110.947 87.3542 109.255 88.3276L103.393 91.711Z" fill="#1F8FFF"/>
<path d="M105.94 90.4488C105.912 90.4477 105.884 90.4411 105.859 90.4294C105.833 90.4177 105.811 90.4011 105.792 90.3806C105.773 90.3601 105.758 90.336 105.748 90.3098C105.739 90.2836 105.734 90.2557 105.736 90.2278C106.023 84.9697 107.663 79.8749 110.496 75.436C110.512 75.4128 110.533 75.3932 110.557 75.3783C110.58 75.3633 110.607 75.3533 110.635 75.349C110.663 75.3446 110.691 75.3459 110.718 75.3528C110.746 75.3597 110.771 75.3721 110.794 75.3892C110.838 75.4223 110.868 75.4715 110.877 75.5263C110.885 75.5811 110.872 75.6372 110.84 75.6825C108.058 80.0565 106.448 85.0728 106.165 90.2491C106.163 90.277 106.156 90.3043 106.144 90.3295C106.132 90.3546 106.115 90.3772 106.094 90.3957C106.073 90.4143 106.048 90.4285 106.022 90.4376C105.995 90.4467 105.967 90.4505 105.94 90.4488Z" fill="white"/>
<path d="M106.182 87.9366C106.146 87.9363 106.111 87.9276 106.08 87.9111C104.89 87.2523 104.231 85.2971 104.205 85.2163C104.196 85.1898 104.192 85.1617 104.193 85.1336C104.195 85.1056 104.202 85.0781 104.214 85.0528C104.227 85.0275 104.244 85.0049 104.265 84.9862C104.286 84.9676 104.31 84.9533 104.337 84.9443C104.391 84.9268 104.449 84.9314 104.499 84.9569C104.549 84.9824 104.587 85.0268 104.605 85.0803C104.605 85.0803 105.242 86.9633 106.305 87.5371C106.353 87.5656 106.388 87.6115 106.404 87.6654C106.419 87.7192 106.412 87.7768 106.386 87.8261C106.367 87.8627 106.337 87.8928 106.301 87.9124C106.264 87.9321 106.223 87.9405 106.182 87.9366Z" fill="white"/>
<path d="M106.39 86.6488C106.343 86.6483 106.298 86.6321 106.261 86.6029C106.224 86.5737 106.197 86.533 106.186 86.4873C106.179 86.4605 106.178 86.4326 106.182 86.4051C106.186 86.3777 106.195 86.3514 106.209 86.3276C106.223 86.3039 106.242 86.2832 106.265 86.2668C106.287 86.2505 106.312 86.2387 106.339 86.2322C109.408 85.4544 110.471 83.8477 110.479 83.8307C110.494 83.807 110.514 83.7865 110.537 83.7703C110.56 83.7542 110.586 83.7427 110.613 83.7366C110.641 83.7305 110.669 83.7298 110.697 83.7346C110.724 83.7395 110.751 83.7497 110.775 83.7648C110.798 83.7799 110.819 83.7995 110.835 83.8225C110.851 83.8455 110.863 83.8714 110.869 83.8989C110.875 83.9263 110.876 83.9547 110.871 83.9824C110.866 84.0101 110.856 84.0365 110.84 84.0602C110.794 84.1325 109.689 85.8199 106.445 86.6445L106.39 86.6488Z" fill="white"/>
<path d="M57.1477 85.1056C57.1477 85.1056 53.0715 84.1109 52.859 76.477C52.6337 68.2395 53.8578 58.6248 49.0335 57.8469C44.2091 57.0691 41.5313 62.9476 41.5908 69.8122C41.6461 75.8224 44.0689 88.8715 57.1307 91.4304L57.1477 85.1056Z" fill="#1F8FFF"/>
<path opacity="0.2" d="M57.1477 85.1056C57.1477 85.1056 53.0715 84.1109 52.859 76.477C52.6337 68.2395 53.8578 58.6248 49.0335 57.8469C44.2091 57.0691 41.5313 62.9476 41.5908 69.8122C41.6461 75.8224 44.0689 88.8715 57.1307 91.4304L57.1477 85.1056Z" fill="black"/>
<path d="M57.1476 90.6483H57.1094C54.1723 90.1127 51.7792 88.4933 49.9983 85.841C44.7191 77.9647 46.3811 63.2579 46.9294 60.6906C46.9416 60.6359 46.9746 60.5881 47.0214 60.5572C47.0681 60.5263 47.125 60.5147 47.1802 60.5248C47.2352 60.538 47.283 60.5718 47.3139 60.6193C47.3447 60.6667 47.3562 60.7242 47.3459 60.7799C46.8061 63.3302 45.1527 77.85 50.351 85.6029C51.1077 86.8052 52.106 87.8372 53.2826 88.6333C54.4592 89.4294 55.7884 89.9723 57.1859 90.2275C57.2136 90.2326 57.2401 90.2432 57.2637 90.2586C57.2873 90.274 57.3076 90.2939 57.3234 90.3173C57.3393 90.3406 57.3503 90.3669 57.3559 90.3945C57.3614 90.4222 57.3615 90.4506 57.3559 90.4783C57.3469 90.5267 57.321 90.5703 57.2829 90.6014C57.2448 90.6325 57.1968 90.6491 57.1476 90.6483Z" fill="white"/>
<path d="M57.1477 110.239C52.9354 110.809 46.0963 110.8 42.1475 107.689C38.1988 104.577 39.0234 101.9 40.5408 100.782C42.0583 99.6638 43.3759 98.3886 40.7661 95.9063C38.1563 93.424 33.9653 89.437 32.6051 83.4565C31.2449 77.476 31.9165 73.7356 34.5859 72.4902C37.1744 71.283 37.8588 73.2042 39.4442 77.1657C41.0297 81.1272 44.5958 77.7311 47.6477 78.968C50.6996 80.2049 50.5763 82.6532 50.7676 84.7572C50.9589 86.8612 51.9663 87.4435 53.6962 87.4435C55.4262 87.4435 57.1477 88.4381 57.1477 90.4189V110.239Z" fill="#1F8FFF"/>
<path d="M57.1478 103.294C57.1296 103.298 57.1107 103.298 57.0925 103.294C56.9097 103.243 52.5529 101.976 46.2069 96.1485C39.4486 89.9428 36.2607 80.6341 36.2267 80.5406C36.2104 80.487 36.2154 80.4293 36.2408 80.3793C36.2661 80.3294 36.3098 80.2913 36.3627 80.2728C36.4157 80.2552 36.4735 80.2591 36.5236 80.2838C36.5737 80.3085 36.6121 80.3519 36.6305 80.4046C36.6602 80.4981 39.8184 89.7047 46.4959 95.834C52.7527 101.585 57.1605 102.873 57.2073 102.886C57.2341 102.893 57.2591 102.906 57.2808 102.924C57.3026 102.941 57.3207 102.963 57.3341 102.987C57.3475 103.012 57.356 103.039 57.359 103.067C57.3621 103.094 57.3596 103.122 57.3518 103.149C57.338 103.192 57.3107 103.229 57.2739 103.255C57.2371 103.282 57.1928 103.295 57.1478 103.294Z" fill="white"/>
<path d="M47.9793 97.6278C47.9365 97.6284 47.8947 97.6156 47.8596 97.5912C47.8245 97.5668 47.798 97.532 47.7838 97.4917C46.4193 93.9893 46.109 86.4956 46.0835 86.1768C46.0823 86.1208 46.1029 86.0664 46.141 86.0252C46.179 85.984 46.2316 85.9591 46.2876 85.9558C46.3431 85.9566 46.3963 85.9779 46.4371 86.0155C46.4779 86.0532 46.5034 86.1046 46.5086 86.1598C46.5086 86.2363 46.8274 93.9 48.1663 97.3387C48.1765 97.3649 48.1815 97.3929 48.1808 97.4211C48.1801 97.4492 48.1739 97.4769 48.1624 97.5026C48.151 97.5283 48.1345 97.5515 48.114 97.5708C48.0935 97.5901 48.0694 97.6051 48.043 97.615C48.0225 97.6224 48.001 97.6267 47.9793 97.6278Z" fill="white"/>
<path d="M47.9457 102.664C47.5538 102.668 47.1621 102.648 46.7725 102.605C46.7446 102.602 46.7176 102.593 46.6931 102.579C46.6686 102.565 46.6471 102.547 46.6297 102.525C46.6124 102.503 46.5995 102.477 46.5919 102.45C46.5843 102.423 46.5822 102.395 46.5855 102.367C46.5889 102.339 46.5977 102.312 46.6114 102.287C46.6252 102.263 46.6437 102.241 46.6658 102.224C46.6879 102.207 46.7132 102.194 46.7403 102.186C46.7673 102.179 46.7956 102.177 46.8235 102.18C46.8618 102.18 50.819 102.63 52.634 100.781C52.6529 100.759 52.6762 100.741 52.7025 100.728C52.7288 100.715 52.7574 100.708 52.7867 100.706C52.8159 100.705 52.8452 100.71 52.8725 100.72C52.8998 100.731 52.9247 100.747 52.9456 100.767C52.9664 100.788 52.9828 100.812 52.9937 100.84C53.0046 100.867 53.0097 100.896 53.0088 100.925C53.0079 100.955 53.0009 100.983 52.9884 101.01C52.9758 101.036 52.9579 101.06 52.9358 101.079C51.6224 102.435 49.3314 102.664 47.9457 102.664Z" fill="white"/>
<path d="M44.8851 22.1772L44.4261 19.5291L42.0628 21.0848C41.8468 20.6597 41.5408 20.287 41.1659 19.9924L42.2966 16.932L40.1713 16.4602L38.6156 19.4356C38.0528 19.5305 37.5071 19.7081 36.9962 19.9626L36.3203 17.7184L33.7955 19.7034L33.9613 22.3387C33.4471 22.9146 32.9809 23.5316 32.5671 24.1834L30.4844 24.0772L29.0222 27.3543L30.8116 28.1194C30.6248 28.7972 30.5066 29.4922 30.4588 30.1937L28.1848 32.2849L28.6396 34.9372L31.0072 33.3816C31.2219 33.8062 31.5282 34.1779 31.904 34.4697L30.7946 37.5343L32.9199 38.0019L35.1472 35.8341C35.6615 35.7533 35.534 34.7842 36.095 34.5079L36.7709 36.7437L39.2914 34.763L39.2277 33.7258C39.7377 33.1563 41.6675 31.9024 42.084 31.2478L42.6068 30.3977L44.069 27.1205L43.3889 25.8879L42.6324 24.2812L44.8851 22.1772ZM37.1704 30.895C35.2322 32.4167 34.6201 32.7525 34.2928 30.7165C33.9655 28.6805 35.0749 25.5861 37.0132 24.0601C38.9514 22.5342 39.691 22.4279 40.0395 24.4597C40.3881 26.4914 39.1129 29.3903 37.1704 30.895Z" fill="#E0E0E0"/>
<path d="M40.1883 16.4602L42.9468 18.0499L41.3912 21.0168L38.6326 19.4271L40.1883 16.4602Z" fill="#F5F5F5"/>
<path d="M47.1849 21.1183L44.8216 22.674L42.063 21.0843L44.4263 19.5286L47.1849 21.1183Z" fill="#F5F5F5"/>
<path d="M46.8064 28.697L45.0169 27.9361L42.2583 26.3464L44.0478 27.1073L46.8064 28.697Z" fill="#E0E0E0"/>
<path d="M30.7908 37.5336L33.5494 39.1191L34.68 36.0587L31.9214 34.469L30.7908 37.5336Z" fill="#E0E0E0"/>
<path d="M39.5039 38.333L36.7496 36.7433L36.0737 34.5076L38.8323 36.0973L39.5039 38.333Z" fill="#E0E0E0"/>
<path d="M47.6393 23.766L47.1845 21.118L44.8212 22.6736C44.6037 22.2484 44.2962 21.8757 43.9201 21.5813L45.0507 18.5209L42.9467 18.0491L41.3867 21.0244C40.8239 21.1194 40.2782 21.297 39.7673 21.5515L39.0957 19.3157L36.5709 21.3007L36.7367 23.9361C36.222 24.5161 35.7557 25.1373 35.3425 25.7935L33.2555 25.6873L31.7933 28.9644L33.5828 29.7295C33.3977 30.4092 33.2795 31.1053 33.23 31.808L30.9602 33.8695L31.415 36.5219L33.7783 34.9662C33.9959 35.3902 34.3034 35.7615 34.6794 36.0543L33.5488 39.1147L35.674 39.5865L37.2297 36.6111C37.7947 36.5172 38.3422 36.3381 38.8534 36.0798L39.525 38.3156L42.0498 36.3348L41.8841 33.6995C42.3982 33.1236 42.8645 32.5066 43.2782 31.8548L45.3652 31.9568L46.8274 28.6796L45.0124 27.9188C45.2006 27.2396 45.3202 26.5433 45.3695 25.8403L47.6393 23.766ZM39.9331 32.5009C37.9991 34.0226 36.1458 33.6103 35.7931 31.5785C35.4403 29.5467 36.7282 26.6606 38.6664 25.139C40.6047 23.6173 42.4536 24.0338 42.8064 26.0656C43.1592 28.0973 41.8713 30.9792 39.9331 32.5009Z" fill="#EBEBEB"/>
<path d="M39.0959 19.3077L36.3373 17.718L33.8125 19.703L36.5711 21.2927L39.0959 19.3077Z" fill="#F5F5F5"/>
<path d="M33.8125 19.7029L33.9783 22.3382L36.7369 23.9279L36.5711 21.2926L33.8125 19.7029Z" fill="#E0E0E0"/>
<path d="M35.3428 25.7725L32.5842 24.1828L30.5015 24.0808L33.2558 25.6705L35.3428 25.7725Z" fill="#F5F5F5"/>
<path d="M30.5012 24.0808L29.0391 27.3537L31.7934 28.9434L33.2556 25.6705L30.5012 24.0808Z" fill="#E0E0E0"/>
<path d="M33.23 31.7828L30.4757 30.1931L28.2017 32.2844L30.956 33.8741L33.23 31.7828Z" fill="#F5F5F5"/>
<path d="M31.4151 36.526L28.6565 34.9363L28.2017 32.2839L30.956 33.8736L31.4151 36.526Z" fill="#E0E0E0"/>
<path d="M42.9468 18.0499L40.1882 16.4602L42.2965 16.932L45.0508 18.5217L42.9468 18.0499Z" fill="#F5F5F5"/>
<path d="M32.5327 10.1562V6.19893L29.3831 7.6186C29.2163 6.94721 28.9282 6.31195 28.533 5.74412L30.518 1.74437L28.0952 0.345947L25.6214 4.06516C24.932 4.00493 24.2374 4.07266 23.5726 4.26493L23.2241 0.826259L19.7982 2.807L19.4539 6.63248C18.7083 7.29315 18.0227 8.01857 17.4051 8.80025L14.9313 7.95014L12.5085 12.1497L14.4892 13.8499C14.1233 14.7754 13.8388 15.7312 13.6391 16.7062L10.4895 18.9208V22.8822L13.6391 21.4626C13.806 22.134 14.0941 22.7692 14.4892 23.3371L12.517 27.341L14.9398 28.7395L17.4136 25.0203C18.103 25.0803 18.7976 25.0126 19.4624 24.8205L19.8067 28.2592L23.2326 26.2784L23.5811 22.4529C24.6504 22.0628 25.5976 21.3971 26.327 20.5232L28.1037 21.148L30.5265 16.9528L29.0388 15.6776C29.3617 14.6143 29.4814 13.4996 29.3916 12.3919L32.5327 10.1562ZM21.5111 20.0429C18.8843 21.5603 17.2606 20.4679 17.2606 17.4458C17.2606 14.4237 19.4326 10.6875 22.0637 9.17004C24.6948 7.65261 26.2845 8.74499 26.2845 11.7926C26.2845 14.8402 24.1422 18.5212 21.5111 20.0429Z" fill="#E0E0E0"/>
<path d="M30.85 1.9314L28.0956 0.345947L25.6218 4.06516L28.3762 5.65486L30.85 1.9314Z" fill="#F5F5F5"/>
<path d="M35.2913 7.78843L32.5327 6.19873L29.3831 7.61841L32.1417 9.2081L35.2913 7.78843Z" fill="#F5F5F5"/>
<path d="M22.5527 29.8489L19.7984 28.2592L19.4541 24.8206L22.2084 26.4102L22.5527 29.8489Z" fill="#E0E0E0"/>
<path d="M12.5046 27.3411L15.2632 28.9308L17.2482 24.931L14.4896 23.3413L12.5046 27.3411Z" fill="#E0E0E0"/>
<path d="M35.2918 11.7669V7.80968L32.1421 9.2166C31.977 8.5446 31.6888 7.90903 31.292 7.34212L33.277 3.34237L30.8542 1.9397L28.3804 5.66316C27.691 5.60084 26.996 5.66861 26.3317 5.86294L25.9831 2.41576L22.5572 4.3965L22.2086 8.22198C21.4641 8.88375 20.7786 9.60908 20.1599 10.3897L17.6861 9.53964L15.2633 13.7392L17.2483 15.4394C16.8804 16.3643 16.5959 17.3202 16.3982 18.2957L13.2485 20.5103V24.4717L16.3982 23.0521C16.5632 23.7241 16.8514 24.3597 17.2483 24.9266L15.2633 28.9263L17.6861 30.3247L20.1599 26.6055C20.8493 26.6657 21.5439 26.598 22.2086 26.4057L22.5572 29.8444L25.9831 27.8637L26.3274 24.0382C27.073 23.3775 27.7586 22.6521 28.3762 21.8704L30.85 22.7205L33.2728 18.5253L31.2878 16.825C31.6556 15.9001 31.9401 14.9442 32.1379 13.9687L35.2918 11.7669ZM24.2701 21.6536C21.6391 23.1711 19.5053 21.9384 19.5053 18.9035C19.5053 15.8687 21.6306 12.175 24.2701 10.6533C26.9097 9.13159 29.0307 10.3685 29.0307 13.4034C29.0307 16.4382 26.897 20.1107 24.2701 21.6324V21.6536Z" fill="#EBEBEB"/>
<path d="M17.4054 8.80876L20.1598 10.3985L17.686 9.5356L14.9316 7.94165L17.4054 8.80876Z" fill="#F0F0F0"/>
<path d="M14.9313 7.94628L12.5078 12.1472L15.2655 13.7381L17.6889 9.53714L14.9313 7.94628Z" fill="#F5F5F5"/>
<path d="M12.5046 12.1411L15.2632 13.7308L17.2482 15.4395L14.4896 13.8541L12.5046 12.1411Z" fill="#E0E0E0"/>
<path d="M13.6391 16.7107L16.3977 18.3004L13.2481 20.5149L10.4895 18.9252L13.6391 16.7107Z" fill="#F5F5F5"/>
<path d="M10.4895 18.925L13.2481 20.5147V24.4762L10.4895 22.8865V18.925Z" fill="#E0E0E0"/>
<path d="M25.9829 2.41587L23.2243 0.826172L19.7983 2.80692L22.5527 4.39662L25.9829 2.41587Z" fill="#F5F5F5"/>
<path d="M61.3473 115.926L101.302 92.8543C101.39 92.8234 101.466 92.7658 101.52 92.6897C101.574 92.6136 101.603 92.5226 101.603 92.4293C101.603 92.3359 101.574 92.2449 101.52 92.1688C101.466 92.0927 101.39 92.0351 101.302 92.0042L97.6085 89.8789C97.3797 89.7638 97.1271 89.7039 96.871 89.7039C96.6149 89.7039 96.3624 89.7638 96.1336 89.8789L56.1659 112.93C56.0778 112.96 56.0016 113.018 55.9477 113.094C55.8937 113.17 55.8647 113.261 55.8647 113.355C55.8647 113.448 55.8937 113.539 55.9477 113.615C56.0016 113.691 56.0778 113.749 56.1659 113.78L59.8723 115.905C60.0995 116.023 60.3512 116.087 60.6073 116.091C60.8634 116.094 61.1168 116.038 61.3473 115.926Z" fill="#E0E0E0"/>
<path d="M100.206 3.77579L64.1784 24.5779C63.6428 24.9274 63.1971 25.3981 62.8773 25.952C62.5576 26.5058 62.3728 27.1272 62.3379 27.7658V113.231C62.3379 114.404 63.1625 114.88 64.1784 114.294L100.206 93.4917C100.742 93.1429 101.188 92.6723 101.508 92.1183C101.828 91.5643 102.012 90.9426 102.046 90.3038V4.83842C102.046 3.66528 101.226 3.18922 100.206 3.77579Z" fill="#455A64"/>
<path d="M64.1781 24.5785L100.206 3.77639C101.115 3.24933 101.868 3.57662 102.021 4.49048C101.936 3.91591 101.73 3.36585 101.417 2.87647C101.104 2.38709 100.691 1.96949 100.206 1.65113L98.7094 0.801024C98.139 0.511648 97.5085 0.36084 96.8689 0.36084C96.2293 0.36084 95.5988 0.511648 95.0284 0.801024L58.9967 21.5861C58.454 21.9264 58.0065 22.3988 57.696 22.959L62.8774 25.9344C63.1878 25.3786 63.6356 24.9117 64.1781 24.5785Z" fill="#37474F"/>
<path d="M57.1479 110.239C57.1828 110.878 57.3677 111.499 57.6874 112.053C58.0072 112.607 58.4529 113.078 58.9884 113.427L60.4889 114.277C61.0082 114.537 61.5765 114.684 62.1566 114.709C62.7368 114.734 63.3156 114.636 63.8553 114.422C63.0052 114.753 62.3293 114.265 62.3293 113.215V27.7664C62.3506 27.1251 62.5365 26.5001 62.8692 25.9514L57.6878 22.9761C57.3598 23.5206 57.1741 24.1389 57.1479 24.7741V110.239Z" fill="#263238"/>
<path d="M65.1686 35.9654L99.228 16.3067C99.8401 15.9581 100.333 16.2429 100.333 16.9443V80.2006C100.313 80.584 100.202 80.9571 100.01 81.2895C99.8179 81.6219 99.5499 81.9042 99.228 82.1133L65.1813 101.772C64.5692 102.125 64.0762 101.84 64.0762 101.134V37.8781C64.0955 37.496 64.2045 37.1237 64.3942 36.7915C64.584 36.4592 64.8492 36.1762 65.1686 35.9654Z" fill="white"/>
<path d="M82.192 17.4163C82.004 17.5397 81.8476 17.7056 81.7354 17.9005C81.6231 18.0954 81.5582 18.3139 81.5459 18.5384C81.5459 18.9635 81.8349 19.1208 82.192 18.9125C82.3807 18.7898 82.5376 18.6242 82.6499 18.4291C82.7623 18.2341 82.8267 18.0151 82.8381 17.7904C82.8381 17.3781 82.549 17.2123 82.192 17.4163Z" fill="#37474F"/>
<path d="M82.1919 94.967C81.4489 95.4531 80.8308 96.1074 80.3877 96.8769C79.9446 97.6464 79.689 98.5094 79.6416 99.3961C79.6416 101.024 80.785 101.687 82.1919 100.871C82.9347 100.385 83.5527 99.7303 83.9957 98.9609C84.4388 98.1915 84.6945 97.3286 84.7422 96.442C84.7507 94.814 83.6031 94.1509 82.1919 94.967Z" fill="#37474F"/>
<path d="M76.0752 23.9959C75.7016 24.2438 75.3916 24.5762 75.1701 24.966C74.9486 25.3558 74.8218 25.7923 74.8 26.2401C74.8 27.0647 75.3781 27.4005 76.0752 26.9882C76.4527 26.7426 76.7669 26.4113 76.9922 26.0213C77.2174 25.6313 77.3475 25.1937 77.3716 24.744C77.3716 23.9194 76.7935 23.5836 76.0752 23.9959Z" fill="#37474F"/>
<path d="M79.2505 23.7154C79.2505 24.268 79.6755 24.4763 80.1729 24.183L88.6739 19.2651C88.9372 19.1007 89.158 18.8764 89.3183 18.6105C89.4786 18.3446 89.5738 18.0446 89.5963 17.735C89.5963 17.1866 89.1712 16.9784 88.6739 17.2716L80.1729 22.1895C79.9101 22.3536 79.6896 22.5772 79.5294 22.8423C79.3691 23.1074 79.2736 23.4065 79.2505 23.7154Z" fill="#37474F"/>
<path d="M60.0212 38.7031C60.3228 38.8995 60.5739 39.1643 60.7541 39.476C60.9343 39.7876 61.0385 40.1373 61.0583 40.4968C61.0583 41.1599 60.595 41.4276 60.0212 41.0961C59.7205 40.8989 59.4705 40.6338 59.2911 40.3223C59.1116 40.0107 59.0079 39.6614 58.9883 39.3024C58.9883 38.6436 59.4516 38.3758 60.0212 38.7031Z" fill="#37474F"/>
<path d="M60.0212 46.6852C60.3228 46.8817 60.5739 47.1465 60.7541 47.4581C60.9343 47.7697 61.0385 48.1195 61.0583 48.4789C61.0583 49.1377 60.595 49.4055 60.0212 49.0782C59.7205 48.881 59.4705 48.616 59.2911 48.3044C59.1116 47.9928 59.0079 47.6435 58.9883 47.2845C58.9883 46.6214 59.4516 46.3536 60.0212 46.6852Z" fill="#37474F"/>
<path d="M59.698 38.8646C59.9997 39.0611 60.2508 39.3259 60.4309 39.6376C60.6111 39.9492 60.7154 40.2989 60.7351 40.6584C60.7351 41.3172 60.2718 41.585 59.698 41.2577C59.3964 41.0612 59.1453 40.7964 58.9651 40.4848C58.7849 40.1731 58.6807 39.8234 58.6609 39.464C58.6651 38.8009 59.1284 38.5459 59.698 38.8646Z" fill="#455A64"/>
<path d="M59.698 46.8422C60.0002 47.0391 60.2517 47.3046 60.4319 47.617C60.6121 47.9294 60.716 48.28 60.7351 48.6402C60.7351 49.299 60.2718 49.5668 59.698 49.2353C59.3957 49.0395 59.144 48.7749 58.9637 48.4631C58.7835 48.1513 58.6797 47.8012 58.6609 47.4415C58.6651 46.7827 59.1284 46.5149 59.698 46.8422Z" fill="#455A64"/>
<path d="M107.228 18.9464C107.228 18.2408 106.735 17.956 106.123 18.3088L102.046 20.6594L72.0758 37.9675C71.7539 38.1767 71.486 38.459 71.2939 38.7914C71.1019 39.1238 70.9911 39.4969 70.9707 39.8803V103.12C70.9707 103.825 71.4638 104.11 72.0758 103.757L102.059 86.4448L106.123 84.0985C106.444 83.8893 106.712 83.607 106.904 83.2746C107.097 82.9422 107.207 82.5691 107.228 82.1858V18.9464Z" fill="white"/>
<path d="M107.653 18.9464C107.679 18.7333 107.643 18.517 107.547 18.3245C107.452 18.1321 107.301 17.9722 107.115 17.8647C106.929 17.7571 106.716 17.7069 106.501 17.7201C106.287 17.7333 106.081 17.8095 105.91 17.9391L102.021 20.1876L71.8632 37.6147C71.4749 37.8598 71.1521 38.1957 70.9225 38.5933C70.693 38.991 70.5636 39.4385 70.5455 39.8973V103.12C70.5285 103.332 70.5693 103.545 70.6636 103.736C70.7579 103.926 70.9022 104.088 71.0811 104.204C71.2333 104.292 71.4066 104.338 71.5827 104.335C71.8318 104.328 72.0748 104.256 72.2882 104.127L102.467 86.6998L106.348 84.4598C106.734 84.2123 107.055 83.8759 107.284 83.4788C107.513 83.0817 107.644 82.6354 107.665 82.1773L107.653 18.9464ZM102.029 85.973L101.681 86.177L71.8802 103.383C71.8301 103.422 71.7721 103.448 71.7103 103.462C71.6485 103.475 71.5846 103.474 71.5232 103.46C71.4679 103.426 71.4126 103.307 71.4126 103.111V39.8803C71.4347 39.5717 71.5264 39.2721 71.681 39.0041C71.8357 38.736 72.0491 38.5066 72.3053 38.3331L102.076 21.1185L106.326 18.6574C106.377 18.6189 106.435 18.5921 106.496 18.5789C106.558 18.5656 106.622 18.5663 106.684 18.5809C106.739 18.6149 106.794 18.7339 106.794 18.9294V82.1858C106.772 82.4944 106.68 82.794 106.526 83.062C106.371 83.33 106.158 83.5594 105.901 83.733L102.021 85.973H102.029Z" fill="#1F8FFF"/>
<path d="M89.099 33.6402C92.9245 31.4385 96.0061 33.2152 96.0061 37.6315C96.0061 42.0478 92.9117 47.4077 89.099 49.5925C85.2863 51.7772 82.1919 50.0175 82.1919 45.6055C82.1919 41.1934 85.2863 35.8463 89.099 33.6402Z" fill="#1F8FFF"/>
<path d="M89.0992 37.1087C90.3361 36.3946 91.3392 36.9727 91.3392 38.3839C91.2972 39.1613 91.0724 39.9178 90.6832 40.5921C90.294 41.2664 89.7513 41.8394 89.0992 42.2646C87.8623 42.9787 86.8591 42.4006 86.8591 40.9894C86.9012 40.212 87.1259 39.4555 87.5151 38.7812C87.9043 38.1069 88.447 37.5339 89.0992 37.1087Z" fill="#1F8FFF"/>
<path d="M93.4642 44.7259C93.4642 42.3796 91.8193 41.4275 89.7833 42.6007L88.5081 43.336C86.4764 44.5091 84.8271 47.3655 84.8271 49.7118V50.3451C86.0045 50.7319 87.4837 50.5236 89.0777 49.5928C90.8434 48.5036 92.3366 47.025 93.443 45.27L93.4642 44.7259Z" fill="#1F8FFF"/>
<path opacity="0.7" d="M89.0992 37.1087C90.3361 36.3946 91.3392 36.9727 91.3392 38.3839C91.2972 39.1613 91.0724 39.9178 90.6832 40.5921C90.294 41.2664 89.7513 41.8394 89.0992 42.2646C87.8623 42.9787 86.8591 42.4006 86.8591 40.9894C86.9012 40.212 87.1259 39.4555 87.5151 38.7812C87.9043 38.1069 88.447 37.5339 89.0992 37.1087Z" fill="white"/>
<path opacity="0.7" d="M93.4642 44.7259C93.4642 42.3796 91.8193 41.4275 89.7833 42.6007L88.5081 43.336C86.4764 44.5091 84.8271 47.3655 84.8271 49.7118V50.3451C86.0045 50.7319 87.4837 50.5236 89.0777 49.5928C90.8434 48.5036 92.3366 47.025 93.443 45.27L93.4642 44.7259Z" fill="white"/>
<path d="M75.7353 59.3051L84.6232 54.1748C85.0483 53.941 85.3585 54.128 85.3585 54.5998V54.8931C85.3451 55.1485 85.2715 55.3972 85.1437 55.6188C85.0159 55.8404 84.8375 56.0287 84.6232 56.1683L75.7353 61.2986C75.3315 61.5324 75 61.3411 75 60.8736V60.5803C75.0138 60.3249 75.0876 60.0764 75.2153 59.8549C75.3431 59.6333 75.5212 59.445 75.7353 59.3051Z" fill="#1F8FFF"/>
<path opacity="0.1" d="M75.7353 59.3051L84.6232 54.1748C85.0483 53.941 85.3585 54.128 85.3585 54.5998V54.8931C85.3451 55.1485 85.2715 55.3972 85.1437 55.6188C85.0159 55.8404 84.8375 56.0287 84.6232 56.1683L75.7353 61.2986C75.3315 61.5324 75 61.3411 75 60.8736V60.5803C75.0138 60.3249 75.0876 60.0764 75.2153 59.8549C75.3431 59.6333 75.5212 59.445 75.7353 59.3051Z" fill="black"/>
<path d="M75.3698 65.4983L102.259 49.9754C102.458 49.8564 102.624 49.9499 102.624 50.1879V53.3248C102.617 53.4521 102.58 53.576 102.516 53.6866C102.453 53.7972 102.365 53.8916 102.259 53.9624L75.3698 69.4853C75.1658 69.6044 75 69.5066 75 69.2728V66.1359C75.0073 66.0081 75.0446 65.8838 75.1088 65.773C75.1731 65.6622 75.2625 65.5682 75.3698 65.4983Z" fill="#1F8FFF"/>
<path opacity="0.2" d="M75.3698 65.4983L102.259 49.9754C102.458 49.8564 102.624 49.9499 102.624 50.1879V53.3248C102.617 53.4521 102.58 53.576 102.516 53.6866C102.453 53.7972 102.365 53.8916 102.259 53.9624L75.3698 69.4853C75.1658 69.6044 75 69.5066 75 69.2728V66.1359C75.0073 66.0081 75.0446 65.8838 75.1088 65.773C75.1731 65.6622 75.2625 65.5682 75.3698 65.4983Z" fill="white"/>
<path d="M75.7353 73.2595L84.6232 68.1291C85.0483 67.8953 85.3585 68.0866 85.3585 68.5541V68.8474C85.3454 69.1029 85.2719 69.3517 85.1441 69.5734C85.0163 69.795 84.8378 69.9832 84.6232 70.1226L75.7353 75.2529C75.3315 75.491 75 75.2997 75 74.8279V74.5346C75.0145 74.2794 75.0885 74.0311 75.2162 73.8097C75.3439 73.5883 75.5217 73.3998 75.7353 73.2595Z" fill="#1F8FFF"/>
<path opacity="0.1" d="M75.7353 73.2595L84.6232 68.1291C85.0483 67.8953 85.3585 68.0866 85.3585 68.5541V68.8474C85.3454 69.1029 85.2719 69.3517 85.1441 69.5734C85.0163 69.795 84.8378 69.9832 84.6232 70.1226L75.7353 75.2529C75.3315 75.491 75 75.2997 75 74.8279V74.5346C75.0145 74.2794 75.0885 74.0311 75.2162 73.8097C75.3439 73.5883 75.5217 73.3998 75.7353 73.2595Z" fill="black"/>
<path d="M75.3698 79.4524L102.259 63.9295C102.458 63.8105 102.624 63.9082 102.624 64.142V67.2789C102.617 67.4062 102.58 67.53 102.516 67.6407C102.453 67.7513 102.365 67.8457 102.259 67.9165L75.3698 83.4394C75.1658 83.5584 75 83.4649 75 83.2269V80.09C75.0073 79.9622 75.0446 79.8378 75.1088 79.7271C75.1731 79.6163 75.2625 79.5222 75.3698 79.4524Z" fill="#1F8FFF"/>
<path opacity="0.2" d="M75.3698 79.4524L102.259 63.9295C102.458 63.8105 102.624 63.9082 102.624 64.142V67.2789C102.617 67.4062 102.58 67.53 102.516 67.6407C102.453 67.7513 102.365 67.8457 102.259 67.9165L75.3698 83.4394C75.1658 83.5584 75 83.4649 75 83.2269V80.09C75.0073 79.9622 75.0446 79.8378 75.1088 79.7271C75.1731 79.6163 75.2625 79.5222 75.3698 79.4524Z" fill="white"/>
<path d="M86.0937 81.2333L96.7201 75.1083C97.1451 74.8702 97.4596 75.0615 97.4596 75.5333V78.8147C97.4457 79.0706 97.3714 79.3195 97.2429 79.5411C97.1144 79.7627 96.9352 79.9508 96.7201 80.0899L86.0937 86.2192C85.6687 86.4529 85.3584 86.2617 85.3584 85.7941V82.5084C85.3732 82.2533 85.4474 82.0052 85.575 81.7838C85.7027 81.5624 85.8803 81.3739 86.0937 81.2333Z" fill="#1F8FFF"/>
<path opacity="0.1" d="M86.0937 81.2333L96.7201 75.1083C97.1451 74.8702 97.4596 75.0615 97.4596 75.5333V78.8147C97.4457 79.0706 97.3714 79.3195 97.2429 79.5411C97.1144 79.7627 96.9352 79.9508 96.7201 80.0899L86.0937 86.2192C85.6687 86.4529 85.3584 86.2617 85.3584 85.7941V82.5084C85.3732 82.2533 85.4474 82.0052 85.575 81.7838C85.7027 81.5624 85.8803 81.3739 86.0937 81.2333Z" fill="black"/>
<path d="M111.257 67.3853C111.257 67.3853 106.038 60.1849 105.732 59.3093C105.489 58.6632 105.732 57.7026 105.808 57.2563C105.885 56.81 105.953 55.8154 106.029 55.5561C106.157 55.0715 105.532 55.1693 105.179 55.6113C104.826 56.0534 104.707 56.9375 104.525 57.082C104.342 57.2265 102.952 55.199 102.225 54.2639C101.498 53.3288 101.043 52.7592 100.597 53.1078C100.278 53.3586 100.516 53.9026 101.043 54.7017C101.351 55.132 101.635 55.579 101.893 56.0406C101.974 56.2149 101.541 56.2277 101.307 56.589C101.124 56.8695 101.307 57.3243 101.052 57.5411C100.895 57.6605 100.787 57.8335 100.75 58.0271C100.712 58.2207 100.747 58.4214 100.848 58.591C101.321 59.334 101.931 59.9802 102.646 60.4952C103.428 61.035 103.742 61.2263 104.206 61.9616C104.669 62.697 108.826 70.2077 109.107 70.6582C109.387 71.1088 109.927 72.0269 110.747 72.0524C111.568 72.0779 118.283 66.2972 118.628 66.0081C119.733 65.0858 120.086 64.954 120.273 65.7829C120.337 66.0775 120.386 66.3755 120.417 66.6755C120.549 67.7296 121.267 71.4956 121.267 71.4956C121.267 71.4956 124.668 73.1405 127.46 72.3457C130.253 71.5508 131.197 70.3649 131.197 70.3649L129.798 68.0866C130.176 67.1473 131.923 63.3388 132.489 60.6737L123.733 59.2583C123.554 59.22 123.265 59.1478 122.883 59.05C122.402 58.9225 121.182 58.5017 120.26 59.3093C117.251 61.9319 111.266 67.3853 111.266 67.3853" fill="#FFA8A7"/>
<path d="M128.616 111.566L127.048 113.746C127.761 114.079 128.54 114.246 129.326 114.235C130.733 114.286 131.12 113.81 131.171 113.717C131.409 113.207 131.039 112.288 130.937 111.498L128.616 111.566Z" fill="#37474F"/>
<path d="M127.137 112.7C127.137 112.7 125.233 112.577 123.919 112.416C122.606 112.254 121.565 112.892 121.871 113.432C122.177 113.971 122.904 114.422 124.034 114.8C124.999 115.127 126.16 115.361 127.163 115.65C128.166 115.939 128.863 116.318 129.445 116.114C130.095 115.888 130.376 115.629 130.321 115.153C130.179 114.476 130.003 113.806 129.794 113.147L127.137 112.7Z" fill="#37474F"/>
<path d="M131.171 109.376C131.171 109.376 130.933 111.357 130.916 111.782C130.899 112.207 128.982 112.343 128.616 111.565L128.557 109.143L131.171 109.376Z" fill="#F28F8F"/>
<path d="M129.241 110.592L129.925 113.601C129.925 113.601 129.989 113.967 128.425 114.201C126.861 114.435 124.404 113.38 123.983 113.168C123.562 112.955 123.515 112.526 125.054 112.611C126.593 112.696 127.137 112.7 127.137 112.7L126.635 111.37L129.241 110.592Z" fill="#FFA8A7"/>
<path d="M132.463 60.6485L133.547 60.3467C133.547 60.3467 135.812 67.5173 136.063 68.2102C136.314 68.903 136.599 69.6341 136.11 70.4884C135.527 71.5043 132.463 75.5891 132.463 75.5891L130.516 73.6848L132.726 69.6383L130.771 65.6853L132.463 60.6485Z" fill="#F28F8F"/>
<path d="M121.331 51.3354C121.077 50.8584 120.948 50.3247 120.956 49.7843C120.964 49.2439 121.109 48.7144 121.378 48.2453C122.457 46.2433 124.863 45.2699 127.728 45.6397C129.054 45.814 130.618 46.9149 131.473 48.5598C132.416 50.3833 132.505 54.0557 132.748 55.4457L121.331 51.3354Z" fill="#37474F"/>
<path d="M121.254 52.1218C121.254 52.1218 120.574 53.4182 120.693 53.5373C120.869 53.6402 121.062 53.7121 121.263 53.7498L121.254 52.1218Z" fill="#FFA8A7"/>
<path d="M123.32 48.0238C122.581 48.5042 121.305 49.3883 121.25 52.2999C121.191 55.2752 121.616 56.2571 122.058 56.6014C122.355 56.8352 124.102 56.7162 124.85 56.5419C125.599 56.3676 127.754 55.3007 128.531 53.6813C129.445 51.7771 129.258 49.0057 127.902 48.1556C127.212 47.7475 126.43 47.5213 125.628 47.4983C124.827 47.4752 124.033 47.6561 123.32 48.0238Z" fill="#FFA8A7"/>
<path d="M131.171 70.3477C132.48 72.3879 133.721 74.1731 133.993 76.4769C134.554 81.3183 132.718 86.8524 132.323 90.4356C133.066 91.4549 133.495 92.6695 133.555 93.9296C133.555 95.413 131.171 109.376 131.171 109.376C131.171 109.376 129.436 109.903 128.557 109.142L126.92 83.4563L127.77 80.3279L131.171 70.3477Z" fill="#1F8FFF"/>
<path opacity="0.2" d="M131.171 70.3477C132.48 72.3879 133.721 74.1731 133.993 76.4769C134.554 81.3183 132.718 86.8524 132.323 90.4356C133.066 91.4549 133.495 92.6695 133.555 93.9296C133.555 95.413 131.171 109.376 131.171 109.376C131.171 109.376 129.436 109.903 128.557 109.142L126.92 83.4563L127.77 80.3279L131.171 70.3477Z" fill="black"/>
<path d="M126.92 83.4566L127.77 80.3282C129.398 79.8997 130.968 79.276 132.446 78.4707C132.446 78.4707 131.562 80.0817 129.02 80.9658L127.707 84.9825L127.596 94.1849L126.92 83.4566Z" fill="#1F8FFF"/>
<path opacity="0.3" d="M126.92 83.4566L127.77 80.3282C129.398 79.8997 130.968 79.276 132.446 78.4707C132.446 78.4707 131.562 80.0817 129.02 80.9658L127.707 84.9825L127.596 94.1849L126.92 83.4566Z" fill="black"/>
<path d="M131.171 70.3477C131.872 71.4953 133.547 73.4505 133.19 75.3335C132.765 77.6118 131.532 79.2142 127.783 80.3279L124.263 93.0795C124.263 93.0795 126.095 94.7797 126.657 96.4246C127.218 98.0696 129.241 110.6 129.241 110.6C129.241 110.6 128.612 111.625 126.635 111.378C126.635 111.378 119.745 95.651 119.261 94.6267C118.672 93.5893 118.466 92.3786 118.678 91.205C118.895 89.5558 121.229 71.5038 121.229 71.5038L131.171 70.3477Z" fill="#1F8FFF"/>
<path opacity="0.2" d="M131.171 70.3477C131.872 71.4953 133.547 73.4505 133.19 75.3335C132.765 77.6118 131.532 79.2142 127.783 80.3279L124.263 93.0795C124.263 93.0795 126.095 94.7797 126.657 96.4246C127.218 98.0696 129.241 110.6 129.241 110.6C129.241 110.6 128.612 111.625 126.635 111.378C126.635 111.378 119.745 95.651 119.261 94.6267C118.672 93.5893 118.466 92.3786 118.678 91.205C118.895 89.5558 121.229 71.5038 121.229 71.5038L131.171 70.3477Z" fill="black"/>
<path d="M132.463 60.6484L123.707 59.2329C123.528 59.1947 123.239 59.1224 122.856 59.0247C122.856 59.0247 122.482 64.5163 120.234 65.7745C120.289 66.038 120.336 66.3313 120.378 66.6671C120.51 67.7212 121.229 71.4872 121.229 71.4872C121.229 71.4872 124.629 73.1322 127.422 72.3373C130.214 71.5425 131.158 70.3566 131.158 70.3566L129.759 68.0783C130.15 67.1304 131.91 63.3219 132.463 60.6484Z" fill="#1F8FFF"/>
<path opacity="0.7" d="M132.463 60.6484L123.707 59.2329C123.528 59.1947 123.239 59.1224 122.856 59.0247C122.856 59.0247 122.482 64.5163 120.234 65.7745C120.289 66.038 120.336 66.3313 120.378 66.6671C120.51 67.7212 121.229 71.4872 121.229 71.4872C121.229 71.4872 124.629 73.1322 127.422 72.3373C130.214 71.5425 131.158 70.3566 131.158 70.3566L129.759 68.0783C130.15 67.1304 131.91 63.3219 132.463 60.6484Z" fill="white"/>
<path d="M130.155 67.1729C128.992 67.8711 127.774 68.4725 126.512 68.9708C127.657 68.948 128.778 68.6381 129.772 68.0697L130.155 67.1729Z" fill="#1F8FFF"/>
<path d="M123.103 48.1688C123.103 48.1688 122.678 50.9316 123.681 52.5553C123.681 52.5553 124.055 51.4544 124.986 51.6627C125.917 51.871 125.968 53.0994 125.314 53.788C125.147 53.9811 124.93 54.1235 124.686 54.1986C124.443 54.2738 124.183 54.2788 123.936 54.213C123.936 54.213 123.788 56.2108 123.707 57.8855C123.626 59.5602 123.184 63.2114 125.067 64.6863C126.95 66.1613 131.677 66.6798 133.891 63.5854C135.124 61.864 133.487 58.8206 132.727 55.4074C132.025 52.2705 131.63 47.6205 128.302 46.8724C124.974 46.1243 123.103 48.1688 123.103 48.1688Z" fill="#37474F"/>
<path d="M135.315 10.4198L134.614 10.8449C134.673 10.5953 134.705 10.3403 134.712 10.084C134.712 8.66008 133.713 8.08626 132.48 8.80885C132.105 9.03513 131.77 9.32245 131.49 9.65896C131.49 7.74622 130.146 6.96837 128.489 7.92474C127.615 8.49443 126.888 9.262 126.367 10.1652C125.846 11.0684 125.544 12.0818 125.488 13.1231C125.488 13.2209 125.488 13.3144 125.488 13.4079C125.061 13.3542 124.629 13.4536 124.268 13.6885C123.618 14.1117 123.078 14.6821 122.69 15.3535C122.302 16.0248 122.078 16.7781 122.036 17.5522C122.036 17.7321 122.055 17.9116 122.092 18.0878L121.718 18.3045C120.702 18.8911 119.877 20.0345 119.877 20.8548C119.877 21.6752 120.702 21.8707 121.718 21.2799L135.319 13.4377C136.335 12.8511 137.16 11.7077 137.16 10.8874C137.16 10.067 136.331 9.82898 135.315 10.4198Z" fill="#EBEBEB"/>
</svg>
