<svg width="30" height="30" viewBox="0 0 30 30" fill="none" xmlns="http://www.w3.org/2000/svg">
<path d="M24.375 11.6375L12.3812 23.6188V25.4938H14.2562L26.25 13.5188L24.375 11.6438" stroke="#2B2F33" stroke-width="1.5" stroke-linecap="round" stroke-linejoin="round"/>
<path d="M23.2188 12.7812L25.0938 14.6562" stroke="#2B2F33" stroke-width="1.5" stroke-linecap="round" stroke-linejoin="round"/>
<path d="M3.88123 23.125C4.50952 23.1283 5.11106 23.3798 5.55475 23.8246C5.99844 24.2695 6.24833 24.8717 6.24998 25.5" stroke="#2B2F33" stroke-width="1.5" stroke-linecap="round" stroke-linejoin="round"/>
<path d="M3.88123 17.0125C6.13225 17.0125 8.29108 17.9067 9.88279 19.4984C11.4745 21.0902 12.3687 23.249 12.3687 25.5" stroke="#2B2F33" stroke-width="1.5" stroke-linecap="round" stroke-linejoin="round"/>
<path d="M3.88123 20.125C5.30734 20.125 6.67514 20.6911 7.68414 21.6989C8.69314 22.7067 9.26082 24.0739 9.26247 25.5" stroke="#2B2F33" stroke-width="1.5" stroke-linecap="round" stroke-linejoin="round"/>
<path d="M10.7312 8.62499C11.3387 8.62499 11.8312 8.1325 11.8312 7.52499C11.8312 6.91747 11.3387 6.42499 10.7312 6.42499C10.1237 6.42499 9.63123 6.91747 9.63123 7.52499C9.63123 8.1325 10.1237 8.62499 10.7312 8.62499Z" stroke="#2B2F33" stroke-width="1.5" stroke-linecap="round" stroke-linejoin="round"/>
<path d="M17.5 22.25V25.5H3.88123V8.96875L10.6937 4.5L17.5 8.96875V18.4563" stroke="#2B2F33" stroke-width="1.5" stroke-linecap="round" stroke-linejoin="round"/>
<path d="M14.2062 21.7938L16.0875 23.675" stroke="#2B2F33" stroke-width="1.5" stroke-linecap="round" stroke-linejoin="round"/>
</svg>
